G75*
%MOIN*%
%OFA0B0*%
%FSLAX25Y25*%
%IPPOS*%
%LPD*%
%AMOC8*
5,1,8,0,0,1.08239X$1,22.5*
%
%ADD10C,0.00000*%
%ADD11C,0.00900*%
%ADD12C,0.00500*%
D10*
X0026600Y0013809D02*
X0057514Y0013809D01*
X0026600Y0013809D02*
X0025996Y0013816D01*
X0025392Y0013838D01*
X0024789Y0013875D01*
X0024187Y0013926D01*
X0023587Y0013991D01*
X0022988Y0014071D01*
X0022391Y0014166D01*
X0021797Y0014275D01*
X0021205Y0014398D01*
X0020617Y0014535D01*
X0020032Y0014687D01*
X0019451Y0014853D01*
X0018875Y0015033D01*
X0018302Y0015226D01*
X0017735Y0015434D01*
X0017173Y0015655D01*
X0016616Y0015889D01*
X0016065Y0016137D01*
X0015520Y0016398D01*
X0014982Y0016673D01*
X0014450Y0016960D01*
X0013926Y0017260D01*
X0013409Y0017572D01*
X0012900Y0017897D01*
X0012398Y0018234D01*
X0011905Y0018584D01*
X0011421Y0018945D01*
X0010945Y0019317D01*
X0010479Y0019701D01*
X0010022Y0020096D01*
X0009575Y0020502D01*
X0009137Y0020919D01*
X0008710Y0021346D01*
X0008293Y0021784D01*
X0007887Y0022231D01*
X0007492Y0022688D01*
X0007108Y0023154D01*
X0006736Y0023630D01*
X0006375Y0024114D01*
X0006025Y0024607D01*
X0005688Y0025109D01*
X0005363Y0025618D01*
X0005051Y0026135D01*
X0004751Y0026659D01*
X0004464Y0027191D01*
X0004189Y0027729D01*
X0003928Y0028274D01*
X0003680Y0028825D01*
X0003446Y0029382D01*
X0003225Y0029944D01*
X0003017Y0030511D01*
X0002824Y0031084D01*
X0002644Y0031660D01*
X0002478Y0032241D01*
X0002326Y0032826D01*
X0002189Y0033414D01*
X0002066Y0034006D01*
X0001957Y0034600D01*
X0001862Y0035197D01*
X0001782Y0035796D01*
X0001717Y0036396D01*
X0001666Y0036998D01*
X0001629Y0037601D01*
X0001607Y0038205D01*
X0001600Y0038809D01*
X0001600Y0072510D01*
X0001602Y0072650D01*
X0001608Y0072790D01*
X0001618Y0072930D01*
X0001631Y0073070D01*
X0001649Y0073209D01*
X0001671Y0073348D01*
X0001696Y0073485D01*
X0001725Y0073623D01*
X0001758Y0073759D01*
X0001795Y0073894D01*
X0001836Y0074028D01*
X0001881Y0074161D01*
X0001929Y0074293D01*
X0001981Y0074423D01*
X0002036Y0074552D01*
X0002095Y0074679D01*
X0002158Y0074805D01*
X0002224Y0074929D01*
X0002293Y0075050D01*
X0002366Y0075170D01*
X0002443Y0075288D01*
X0002522Y0075403D01*
X0002605Y0075517D01*
X0002691Y0075627D01*
X0002780Y0075736D01*
X0002872Y0075842D01*
X0002967Y0075945D01*
X0003064Y0076046D01*
X0003165Y0076143D01*
X0003268Y0076238D01*
X0003374Y0076330D01*
X0003483Y0076419D01*
X0003593Y0076505D01*
X0003707Y0076588D01*
X0003822Y0076667D01*
X0003940Y0076744D01*
X0004060Y0076817D01*
X0004181Y0076886D01*
X0004305Y0076952D01*
X0004431Y0077015D01*
X0004558Y0077074D01*
X0004687Y0077129D01*
X0004817Y0077181D01*
X0004949Y0077229D01*
X0005082Y0077274D01*
X0005216Y0077315D01*
X0005351Y0077352D01*
X0005487Y0077385D01*
X0005625Y0077414D01*
X0005762Y0077439D01*
X0005901Y0077461D01*
X0006040Y0077479D01*
X0006180Y0077492D01*
X0006320Y0077502D01*
X0006460Y0077508D01*
X0006600Y0077510D01*
X0086521Y0077510D01*
X0086661Y0077508D01*
X0086801Y0077502D01*
X0086941Y0077492D01*
X0087081Y0077479D01*
X0087220Y0077461D01*
X0087359Y0077439D01*
X0087496Y0077414D01*
X0087634Y0077385D01*
X0087770Y0077352D01*
X0087905Y0077315D01*
X0088039Y0077274D01*
X0088172Y0077229D01*
X0088304Y0077181D01*
X0088434Y0077129D01*
X0088563Y0077074D01*
X0088690Y0077015D01*
X0088816Y0076952D01*
X0088940Y0076886D01*
X0089061Y0076817D01*
X0089181Y0076744D01*
X0089299Y0076667D01*
X0089414Y0076588D01*
X0089528Y0076505D01*
X0089638Y0076419D01*
X0089747Y0076330D01*
X0089853Y0076238D01*
X0089956Y0076143D01*
X0090057Y0076046D01*
X0090154Y0075945D01*
X0090249Y0075842D01*
X0090341Y0075736D01*
X0090430Y0075627D01*
X0090516Y0075517D01*
X0090599Y0075403D01*
X0090678Y0075288D01*
X0090755Y0075170D01*
X0090828Y0075050D01*
X0090897Y0074929D01*
X0090963Y0074805D01*
X0091026Y0074679D01*
X0091085Y0074552D01*
X0091140Y0074423D01*
X0091192Y0074293D01*
X0091240Y0074161D01*
X0091285Y0074028D01*
X0091326Y0073894D01*
X0091363Y0073759D01*
X0091396Y0073623D01*
X0091425Y0073485D01*
X0091450Y0073348D01*
X0091472Y0073209D01*
X0091490Y0073070D01*
X0091503Y0072930D01*
X0091513Y0072790D01*
X0091519Y0072650D01*
X0091521Y0072510D01*
X0091521Y0047817D01*
X0091522Y0047817D02*
X0091512Y0046995D01*
X0091482Y0046174D01*
X0091433Y0045354D01*
X0091363Y0044535D01*
X0091274Y0043718D01*
X0091165Y0042903D01*
X0091037Y0042092D01*
X0090888Y0041283D01*
X0090721Y0040479D01*
X0090534Y0039678D01*
X0090327Y0038883D01*
X0090102Y0038093D01*
X0089858Y0037308D01*
X0089594Y0036529D01*
X0089312Y0035758D01*
X0089011Y0034993D01*
X0088692Y0034235D01*
X0088355Y0033486D01*
X0088000Y0032745D01*
X0087627Y0032013D01*
X0087236Y0031290D01*
X0086828Y0030576D01*
X0086403Y0029873D01*
X0085961Y0029180D01*
X0085502Y0028498D01*
X0085027Y0027828D01*
X0084536Y0027169D01*
X0084029Y0026522D01*
X0083507Y0025887D01*
X0082969Y0025266D01*
X0082417Y0024657D01*
X0081850Y0024062D01*
X0081269Y0023481D01*
X0080674Y0022914D01*
X0080065Y0022362D01*
X0079444Y0021824D01*
X0078809Y0021302D01*
X0078162Y0020795D01*
X0077503Y0020304D01*
X0076833Y0019829D01*
X0076151Y0019370D01*
X0075458Y0018928D01*
X0074755Y0018503D01*
X0074041Y0018095D01*
X0073318Y0017704D01*
X0072586Y0017331D01*
X0071845Y0016976D01*
X0071096Y0016639D01*
X0070338Y0016320D01*
X0069573Y0016019D01*
X0068802Y0015737D01*
X0068023Y0015473D01*
X0067238Y0015229D01*
X0066448Y0015004D01*
X0065653Y0014797D01*
X0064852Y0014610D01*
X0064048Y0014443D01*
X0063239Y0014294D01*
X0062428Y0014166D01*
X0061613Y0014057D01*
X0060796Y0013968D01*
X0059977Y0013898D01*
X0059157Y0013849D01*
X0058336Y0013819D01*
X0057514Y0013809D01*
D11*
X0032633Y0039526D02*
X0033150Y0040044D01*
X0033150Y0041078D01*
X0032633Y0041595D01*
X0032116Y0041595D01*
X0031599Y0041078D01*
X0031599Y0040044D01*
X0031082Y0039526D01*
X0030564Y0039526D01*
X0030047Y0040044D01*
X0030047Y0041078D01*
X0030564Y0041595D01*
X0030564Y0043210D02*
X0031599Y0044244D01*
X0033150Y0044244D01*
X0031599Y0044244D02*
X0030564Y0045278D01*
X0030047Y0045278D01*
X0030047Y0046893D02*
X0033150Y0048961D01*
X0030047Y0048961D01*
X0030564Y0050576D02*
X0032633Y0050576D01*
X0033150Y0051093D01*
X0033150Y0052127D01*
X0032633Y0052644D01*
X0030564Y0052644D02*
X0030047Y0052127D01*
X0030047Y0051093D01*
X0030564Y0050576D01*
X0030047Y0046893D02*
X0033150Y0046893D01*
X0030564Y0043210D02*
X0030047Y0043210D01*
X0023150Y0043210D02*
X0023150Y0044761D01*
X0022633Y0045278D01*
X0020564Y0045278D01*
X0020047Y0044761D01*
X0020047Y0043210D01*
X0023150Y0043210D01*
X0022633Y0041595D02*
X0020047Y0041595D01*
X0020047Y0039526D02*
X0022633Y0039526D01*
X0023150Y0040044D01*
X0023150Y0041078D01*
X0022633Y0041595D01*
X0023150Y0037912D02*
X0021082Y0037912D01*
X0020047Y0036878D01*
X0021082Y0035843D01*
X0023150Y0035843D01*
X0021599Y0035843D02*
X0021599Y0037912D01*
X0013150Y0037912D02*
X0011082Y0037912D01*
X0010047Y0036878D01*
X0011082Y0035843D01*
X0013150Y0035843D01*
X0011599Y0035843D02*
X0011599Y0037912D01*
X0012633Y0039526D02*
X0010047Y0039526D01*
X0010047Y0041595D02*
X0012633Y0041595D01*
X0013150Y0041078D01*
X0013150Y0040044D01*
X0012633Y0039526D01*
X0013150Y0043210D02*
X0010047Y0043210D01*
X0010047Y0044761D01*
X0010564Y0045278D01*
X0012633Y0045278D01*
X0013150Y0044761D01*
X0013150Y0043210D01*
X0011599Y0046893D02*
X0011599Y0048961D01*
X0012116Y0050576D02*
X0012116Y0052127D01*
X0011599Y0052644D01*
X0010564Y0052644D01*
X0010047Y0052127D01*
X0010047Y0050576D01*
X0013150Y0050576D01*
X0012116Y0051610D02*
X0013150Y0052644D01*
X0020047Y0050576D02*
X0023150Y0050576D01*
X0023150Y0052644D01*
X0021599Y0048961D02*
X0021599Y0046893D01*
X0040047Y0046893D02*
X0043150Y0048961D01*
X0040047Y0048961D01*
X0040047Y0050576D02*
X0040047Y0052127D01*
X0040564Y0052644D01*
X0042633Y0052644D01*
X0043150Y0052127D01*
X0043150Y0050576D01*
X0040047Y0050576D01*
X0040047Y0046893D02*
X0043150Y0046893D01*
X0042633Y0045278D02*
X0041599Y0045278D01*
X0041599Y0044244D01*
X0042633Y0045278D02*
X0043150Y0044761D01*
X0043150Y0043727D01*
X0042633Y0043210D01*
X0040564Y0043210D01*
X0040047Y0043727D01*
X0040047Y0044761D01*
X0040564Y0045278D01*
X0050047Y0045278D02*
X0052116Y0045278D01*
X0053150Y0044244D01*
X0052116Y0043210D01*
X0050047Y0043210D01*
X0050564Y0046893D02*
X0050047Y0047410D01*
X0050047Y0048444D01*
X0050564Y0048961D01*
X0050564Y0050576D02*
X0052633Y0050576D01*
X0053150Y0051093D01*
X0053150Y0052127D01*
X0052633Y0052644D01*
X0050564Y0052644D02*
X0050047Y0052127D01*
X0050047Y0051093D01*
X0050564Y0050576D01*
X0052633Y0048961D02*
X0053150Y0048444D01*
X0053150Y0047410D01*
X0052633Y0046893D01*
X0050564Y0046893D01*
X0060047Y0050576D02*
X0060047Y0052127D01*
X0060564Y0052644D01*
X0061082Y0052644D01*
X0061599Y0052127D01*
X0061599Y0050576D01*
X0063150Y0050576D02*
X0063150Y0052127D01*
X0062633Y0052644D01*
X0062116Y0052644D01*
X0061599Y0052127D01*
X0063150Y0050576D02*
X0060047Y0050576D01*
X0070047Y0051093D02*
X0070564Y0050576D01*
X0072633Y0050576D01*
X0073150Y0051093D01*
X0073150Y0052127D01*
X0072633Y0052644D01*
X0071599Y0052644D01*
X0071599Y0051610D01*
X0070564Y0052644D02*
X0070047Y0052127D01*
X0070047Y0051093D01*
X0080047Y0050576D02*
X0080047Y0052127D01*
X0080564Y0052644D01*
X0081599Y0052644D01*
X0082116Y0052127D01*
X0082116Y0050576D01*
X0083150Y0050576D02*
X0080047Y0050576D01*
X0082116Y0051610D02*
X0083150Y0052644D01*
X0073059Y0070054D02*
X0072025Y0071089D01*
X0072542Y0071089D02*
X0070990Y0071089D01*
X0070990Y0070054D02*
X0070990Y0073157D01*
X0072542Y0073157D01*
X0073059Y0072640D01*
X0073059Y0071606D01*
X0072542Y0071089D01*
X0069376Y0070054D02*
X0067307Y0070054D01*
X0067307Y0073157D01*
X0069376Y0073157D01*
X0068341Y0071606D02*
X0067307Y0071606D01*
X0065693Y0073157D02*
X0063624Y0073157D01*
X0064658Y0073157D02*
X0064658Y0070054D01*
X0062009Y0071606D02*
X0062009Y0072640D01*
X0061492Y0073157D01*
X0059941Y0073157D01*
X0059941Y0070054D01*
X0059941Y0071089D02*
X0061492Y0071089D01*
X0062009Y0071606D01*
X0058326Y0071606D02*
X0056258Y0071606D01*
X0056258Y0072123D02*
X0057292Y0073157D01*
X0058326Y0072123D01*
X0058326Y0070054D01*
X0056258Y0070054D02*
X0056258Y0072123D01*
X0054643Y0072640D02*
X0054643Y0070571D01*
X0054126Y0070054D01*
X0052575Y0070054D01*
X0052575Y0073157D01*
X0054126Y0073157D01*
X0054643Y0072640D01*
X0050960Y0072123D02*
X0050960Y0070054D01*
X0050960Y0071606D02*
X0048892Y0071606D01*
X0048892Y0072123D02*
X0049926Y0073157D01*
X0050960Y0072123D01*
X0048892Y0072123D02*
X0048892Y0070054D01*
X0043594Y0071089D02*
X0043594Y0073157D01*
X0043594Y0071089D02*
X0042559Y0070054D01*
X0041525Y0071089D01*
X0041525Y0073157D01*
X0039911Y0072640D02*
X0039393Y0073157D01*
X0038359Y0073157D01*
X0037842Y0072640D01*
X0037842Y0072123D01*
X0038359Y0071606D01*
X0039393Y0071606D01*
X0039911Y0071089D01*
X0039911Y0070571D01*
X0039393Y0070054D01*
X0038359Y0070054D01*
X0037842Y0070571D01*
X0036227Y0070571D02*
X0035710Y0070054D01*
X0034676Y0070054D01*
X0034159Y0070571D01*
X0036227Y0072640D01*
X0036227Y0070571D01*
X0034159Y0070571D02*
X0034159Y0072640D01*
X0034676Y0073157D01*
X0035710Y0073157D01*
X0036227Y0072640D01*
X0032544Y0072640D02*
X0032544Y0072123D01*
X0032027Y0071606D01*
X0030993Y0071606D01*
X0030476Y0072123D01*
X0030476Y0072640D01*
X0030993Y0073157D01*
X0032027Y0073157D01*
X0032544Y0072640D01*
X0032027Y0071606D02*
X0032544Y0071089D01*
X0032544Y0070571D01*
X0032027Y0070054D01*
X0030993Y0070054D01*
X0030476Y0070571D01*
X0030476Y0071089D01*
X0030993Y0071606D01*
X0028861Y0071606D02*
X0026793Y0071606D01*
X0025178Y0072640D02*
X0024661Y0073157D01*
X0023110Y0073157D01*
X0023110Y0070054D01*
X0024661Y0070054D01*
X0025178Y0070571D01*
X0025178Y0072640D01*
X0021495Y0073157D02*
X0021495Y0070054D01*
X0020461Y0072123D02*
X0021495Y0073157D01*
X0020461Y0072123D02*
X0019426Y0073157D01*
X0019426Y0070054D01*
D12*
X0004710Y0068809D02*
X0088490Y0068809D01*
X0088490Y0057313D01*
X0004710Y0057313D01*
X0004710Y0068809D01*
X0004710Y0074439D01*
X0088490Y0074439D01*
X0088490Y0068809D01*
X0091246Y0077195D02*
X0091246Y0054557D01*
X0001954Y0054557D01*
X0001954Y0077195D01*
X0091246Y0077195D01*
M02*
