%
M48
M72
T01C0.0236
T02C0.0276
T03C0.0400
T04C0.0512
T05C0.0630
T06C0.1102
T07C0.2126
%
T01
X14425Y8926
X20764Y10676
X23357Y10301
X26272Y10348
X30014Y11176
X29514Y13082
X29049Y13461
X28049Y13744
X27264Y13426
X24514Y13676
X30425Y15926
X30425Y17926
X38425Y14426
X35264Y12676
X37925Y8926
X35264Y8676
X14582Y13426
X14657Y16101
X9264Y13176
X6417Y9926
T02
X5720Y13811
X4539Y13811
X3358Y13811
T03
X2514Y1926
X2514Y2926
X2514Y3926
X2514Y4926
X2514Y5926
X2514Y6926
X2514Y7926
X2514Y8926
X2514Y9926
X2764Y15819
X3764Y15819
X3764Y16819
X2764Y16819
X2764Y17819
X3764Y17819
X3764Y18819
X2764Y18819
X16595Y7619
X17595Y7619
X18595Y7619
X19595Y7619
X20595Y7619
X21595Y7619
X22595Y7619
X23595Y7619
X24595Y7619
X25595Y7619
X26595Y7619
X27595Y7619
X28595Y7619
X29595Y7619
X30595Y7619
X31595Y7619
X32595Y7619
X33595Y7619
X34595Y7619
X35595Y7619
X35595Y6619
X34595Y6619
X33595Y6619
X32595Y6619
X31595Y6619
X30595Y6619
X29595Y6619
X28595Y6619
X27595Y6619
X26595Y6619
X25595Y6619
X24595Y6619
X23595Y6619
X22595Y6619
X21595Y6619
X20595Y6619
X19595Y6619
X18595Y6619
X17595Y6619
X16595Y6619
X32514Y15676
X33514Y15676
T04
X35189Y18496
X37158Y18496
X29638Y18496
X27670Y18496
X22237Y18496
X20268Y18496
X14756Y18496
X12788Y18496
T05
X8082Y13811
X996Y13811
T06
X14678Y7119
X37512Y7119
T07
X36410Y11056
X10780Y13811
M30
