G75*
%MOIN*%
%OFA0B0*%
%FSLAX25Y25*%
%IPPOS*%
%LPD*%
%AMOC8*
5,1,8,0,0,1.08239X$1,22.5*
%
%ADD10C,0.00000*%
D10*
X0009059Y0004256D02*
X0049643Y0004256D01*
X0049783Y0004258D01*
X0049923Y0004264D01*
X0050063Y0004274D01*
X0050203Y0004287D01*
X0050342Y0004305D01*
X0050481Y0004327D01*
X0050618Y0004352D01*
X0050756Y0004381D01*
X0050892Y0004414D01*
X0051027Y0004451D01*
X0051161Y0004492D01*
X0051294Y0004537D01*
X0051426Y0004585D01*
X0051556Y0004637D01*
X0051685Y0004692D01*
X0051812Y0004751D01*
X0051938Y0004814D01*
X0052062Y0004880D01*
X0052183Y0004949D01*
X0052303Y0005022D01*
X0052421Y0005099D01*
X0052536Y0005178D01*
X0052650Y0005261D01*
X0052760Y0005347D01*
X0052869Y0005436D01*
X0052975Y0005528D01*
X0053078Y0005623D01*
X0053179Y0005720D01*
X0053276Y0005821D01*
X0053371Y0005924D01*
X0053463Y0006030D01*
X0053552Y0006139D01*
X0053638Y0006249D01*
X0053721Y0006363D01*
X0053800Y0006478D01*
X0053877Y0006596D01*
X0053950Y0006716D01*
X0054019Y0006837D01*
X0054085Y0006961D01*
X0054148Y0007087D01*
X0054207Y0007214D01*
X0054262Y0007343D01*
X0054314Y0007473D01*
X0054362Y0007605D01*
X0054407Y0007738D01*
X0054448Y0007872D01*
X0054485Y0008007D01*
X0054518Y0008143D01*
X0054547Y0008281D01*
X0054572Y0008418D01*
X0054594Y0008557D01*
X0054612Y0008696D01*
X0054625Y0008836D01*
X0054635Y0008976D01*
X0054641Y0009116D01*
X0054643Y0009256D01*
X0054643Y0086146D01*
X0130358Y0086146D01*
X0130498Y0086144D01*
X0130638Y0086138D01*
X0130778Y0086128D01*
X0130918Y0086115D01*
X0131057Y0086097D01*
X0131196Y0086075D01*
X0131333Y0086050D01*
X0131471Y0086021D01*
X0131607Y0085988D01*
X0131742Y0085951D01*
X0131876Y0085910D01*
X0132009Y0085865D01*
X0132141Y0085817D01*
X0132271Y0085765D01*
X0132400Y0085710D01*
X0132527Y0085651D01*
X0132653Y0085588D01*
X0132777Y0085522D01*
X0132898Y0085453D01*
X0133018Y0085380D01*
X0133136Y0085303D01*
X0133251Y0085224D01*
X0133365Y0085141D01*
X0133475Y0085055D01*
X0133584Y0084966D01*
X0133690Y0084874D01*
X0133793Y0084779D01*
X0133894Y0084682D01*
X0133991Y0084581D01*
X0134086Y0084478D01*
X0134178Y0084372D01*
X0134267Y0084263D01*
X0134353Y0084153D01*
X0134436Y0084039D01*
X0134515Y0083924D01*
X0134592Y0083806D01*
X0134665Y0083686D01*
X0134734Y0083565D01*
X0134800Y0083441D01*
X0134863Y0083315D01*
X0134922Y0083188D01*
X0134977Y0083059D01*
X0135029Y0082929D01*
X0135077Y0082797D01*
X0135122Y0082664D01*
X0135163Y0082530D01*
X0135200Y0082395D01*
X0135233Y0082259D01*
X0135262Y0082121D01*
X0135287Y0081984D01*
X0135309Y0081845D01*
X0135327Y0081706D01*
X0135340Y0081566D01*
X0135350Y0081426D01*
X0135356Y0081286D01*
X0135358Y0081146D01*
X0135358Y0069217D01*
X0135359Y0069216D02*
X0135376Y0068945D01*
X0135400Y0068675D01*
X0135431Y0068405D01*
X0135468Y0068136D01*
X0135512Y0067868D01*
X0135562Y0067601D01*
X0135618Y0067336D01*
X0135681Y0067072D01*
X0135750Y0066809D01*
X0135826Y0066548D01*
X0135908Y0066289D01*
X0135996Y0066033D01*
X0136090Y0065778D01*
X0136191Y0065526D01*
X0136297Y0065276D01*
X0136410Y0065029D01*
X0136528Y0064785D01*
X0136652Y0064543D01*
X0136782Y0064305D01*
X0136918Y0064070D01*
X0137060Y0063838D01*
X0137207Y0063610D01*
X0137359Y0063385D01*
X0137517Y0063164D01*
X0137680Y0062947D01*
X0137849Y0062734D01*
X0138022Y0062525D01*
X0138200Y0062320D01*
X0138384Y0062120D01*
X0138572Y0061924D01*
X0138765Y0061733D01*
X0138962Y0061547D01*
X0139164Y0061365D01*
X0139370Y0061188D01*
X0139580Y0061017D01*
X0139795Y0060850D01*
X0140013Y0060689D01*
X0140236Y0060533D01*
X0140462Y0060382D01*
X0140691Y0060237D01*
X0140924Y0060098D01*
X0141160Y0059964D01*
X0141400Y0059836D01*
X0141642Y0059714D01*
X0141887Y0059597D01*
X0142136Y0059487D01*
X0142386Y0059383D01*
X0142639Y0059284D01*
X0142895Y0059192D01*
X0143152Y0059106D01*
X0143412Y0059027D01*
X0143673Y0058953D01*
X0143936Y0058886D01*
X0144201Y0058826D01*
X0144467Y0058771D01*
X0144734Y0058723D01*
X0145003Y0058682D01*
X0145272Y0058647D01*
X0145542Y0058619D01*
X0145813Y0058597D01*
X0146084Y0058582D01*
X0146355Y0058573D01*
X0146627Y0058571D01*
X0146898Y0058576D01*
X0147170Y0058587D01*
X0147169Y0058587D02*
X0375516Y0058587D01*
X0375515Y0058587D02*
X0375787Y0058576D01*
X0376058Y0058571D01*
X0376330Y0058573D01*
X0376601Y0058582D01*
X0376872Y0058597D01*
X0377143Y0058619D01*
X0377413Y0058647D01*
X0377682Y0058682D01*
X0377951Y0058723D01*
X0378218Y0058771D01*
X0378484Y0058826D01*
X0378749Y0058886D01*
X0379012Y0058953D01*
X0379273Y0059027D01*
X0379533Y0059106D01*
X0379790Y0059192D01*
X0380046Y0059284D01*
X0380299Y0059383D01*
X0380549Y0059487D01*
X0380798Y0059597D01*
X0381043Y0059714D01*
X0381285Y0059836D01*
X0381525Y0059964D01*
X0381761Y0060098D01*
X0381994Y0060237D01*
X0382223Y0060382D01*
X0382449Y0060533D01*
X0382672Y0060689D01*
X0382890Y0060850D01*
X0383105Y0061017D01*
X0383315Y0061188D01*
X0383521Y0061365D01*
X0383723Y0061547D01*
X0383920Y0061733D01*
X0384113Y0061924D01*
X0384301Y0062120D01*
X0384485Y0062320D01*
X0384663Y0062525D01*
X0384836Y0062734D01*
X0385005Y0062947D01*
X0385168Y0063164D01*
X0385326Y0063385D01*
X0385478Y0063610D01*
X0385625Y0063838D01*
X0385767Y0064070D01*
X0385903Y0064305D01*
X0386033Y0064543D01*
X0386157Y0064785D01*
X0386275Y0065029D01*
X0386388Y0065276D01*
X0386494Y0065526D01*
X0386595Y0065778D01*
X0386689Y0066033D01*
X0386777Y0066289D01*
X0386859Y0066548D01*
X0386935Y0066809D01*
X0387004Y0067072D01*
X0387067Y0067336D01*
X0387123Y0067601D01*
X0387173Y0067868D01*
X0387217Y0068136D01*
X0387254Y0068405D01*
X0387285Y0068675D01*
X0387309Y0068945D01*
X0387326Y0069216D01*
X0387327Y0069217D02*
X0387327Y0081146D01*
X0387329Y0081286D01*
X0387335Y0081426D01*
X0387345Y0081566D01*
X0387358Y0081706D01*
X0387376Y0081845D01*
X0387398Y0081984D01*
X0387423Y0082121D01*
X0387452Y0082259D01*
X0387485Y0082395D01*
X0387522Y0082530D01*
X0387563Y0082664D01*
X0387608Y0082797D01*
X0387656Y0082929D01*
X0387708Y0083059D01*
X0387763Y0083188D01*
X0387822Y0083315D01*
X0387885Y0083441D01*
X0387951Y0083565D01*
X0388020Y0083686D01*
X0388093Y0083806D01*
X0388170Y0083924D01*
X0388249Y0084039D01*
X0388332Y0084153D01*
X0388418Y0084263D01*
X0388507Y0084372D01*
X0388599Y0084478D01*
X0388694Y0084581D01*
X0388791Y0084682D01*
X0388892Y0084779D01*
X0388995Y0084874D01*
X0389101Y0084966D01*
X0389210Y0085055D01*
X0389320Y0085141D01*
X0389434Y0085224D01*
X0389549Y0085303D01*
X0389667Y0085380D01*
X0389787Y0085453D01*
X0389908Y0085522D01*
X0390032Y0085588D01*
X0390158Y0085651D01*
X0390285Y0085710D01*
X0390414Y0085765D01*
X0390544Y0085817D01*
X0390676Y0085865D01*
X0390809Y0085910D01*
X0390943Y0085951D01*
X0391078Y0085988D01*
X0391214Y0086021D01*
X0391352Y0086050D01*
X0391489Y0086075D01*
X0391628Y0086097D01*
X0391767Y0086115D01*
X0391907Y0086128D01*
X0392047Y0086138D01*
X0392187Y0086144D01*
X0392327Y0086146D01*
X0392471Y0086145D01*
X0392615Y0086148D01*
X0392759Y0086155D01*
X0392903Y0086167D01*
X0393047Y0086181D01*
X0393190Y0086200D01*
X0393332Y0086223D01*
X0393474Y0086249D01*
X0393615Y0086280D01*
X0393756Y0086314D01*
X0393895Y0086352D01*
X0394033Y0086393D01*
X0394170Y0086439D01*
X0394306Y0086488D01*
X0394440Y0086541D01*
X0394573Y0086597D01*
X0394704Y0086657D01*
X0394834Y0086720D01*
X0394962Y0086787D01*
X0395088Y0086858D01*
X0395212Y0086932D01*
X0395334Y0087009D01*
X0395453Y0087089D01*
X0395571Y0087173D01*
X0395686Y0087260D01*
X0395799Y0087349D01*
X0395910Y0087442D01*
X0396018Y0087538D01*
X0396123Y0087637D01*
X0396225Y0087738D01*
X0396325Y0087843D01*
X0396422Y0087950D01*
X0396516Y0088059D01*
X0396607Y0088171D01*
X0396695Y0088286D01*
X0396780Y0088402D01*
X0396861Y0088522D01*
X0396940Y0088643D01*
X0397015Y0088766D01*
X0397086Y0088891D01*
X0397155Y0089018D01*
X0397219Y0089147D01*
X0397281Y0089278D01*
X0397338Y0089410D01*
X0397392Y0089544D01*
X0397443Y0089679D01*
X0397490Y0089816D01*
X0397533Y0089954D01*
X0397572Y0090093D01*
X0397607Y0090232D01*
X0397639Y0090373D01*
X0397667Y0090515D01*
X0397691Y0090657D01*
X0397711Y0090800D01*
X0397728Y0090943D01*
X0397740Y0091087D01*
X0397748Y0091231D01*
X0397753Y0091376D01*
X0397753Y0091375D02*
X0397753Y0186736D01*
X0386146Y0201106D01*
X0009059Y0201106D01*
X0008919Y0201104D01*
X0008779Y0201098D01*
X0008639Y0201088D01*
X0008499Y0201075D01*
X0008360Y0201057D01*
X0008221Y0201035D01*
X0008084Y0201010D01*
X0007946Y0200981D01*
X0007810Y0200948D01*
X0007675Y0200911D01*
X0007541Y0200870D01*
X0007408Y0200825D01*
X0007276Y0200777D01*
X0007146Y0200725D01*
X0007017Y0200670D01*
X0006890Y0200611D01*
X0006764Y0200548D01*
X0006640Y0200482D01*
X0006519Y0200413D01*
X0006399Y0200340D01*
X0006281Y0200263D01*
X0006166Y0200184D01*
X0006052Y0200101D01*
X0005942Y0200015D01*
X0005833Y0199926D01*
X0005727Y0199834D01*
X0005624Y0199739D01*
X0005523Y0199642D01*
X0005426Y0199541D01*
X0005331Y0199438D01*
X0005239Y0199332D01*
X0005150Y0199223D01*
X0005064Y0199113D01*
X0004981Y0198999D01*
X0004902Y0198884D01*
X0004825Y0198766D01*
X0004752Y0198646D01*
X0004683Y0198525D01*
X0004617Y0198401D01*
X0004554Y0198275D01*
X0004495Y0198148D01*
X0004440Y0198019D01*
X0004388Y0197889D01*
X0004340Y0197757D01*
X0004295Y0197624D01*
X0004254Y0197490D01*
X0004217Y0197355D01*
X0004184Y0197219D01*
X0004155Y0197081D01*
X0004130Y0196944D01*
X0004108Y0196805D01*
X0004090Y0196666D01*
X0004077Y0196526D01*
X0004067Y0196386D01*
X0004061Y0196246D01*
X0004059Y0196106D01*
X0004059Y0009256D01*
X0004061Y0009116D01*
X0004067Y0008976D01*
X0004077Y0008836D01*
X0004090Y0008696D01*
X0004108Y0008557D01*
X0004130Y0008418D01*
X0004155Y0008281D01*
X0004184Y0008143D01*
X0004217Y0008007D01*
X0004254Y0007872D01*
X0004295Y0007738D01*
X0004340Y0007605D01*
X0004388Y0007473D01*
X0004440Y0007343D01*
X0004495Y0007214D01*
X0004554Y0007087D01*
X0004617Y0006961D01*
X0004683Y0006837D01*
X0004752Y0006716D01*
X0004825Y0006596D01*
X0004902Y0006478D01*
X0004981Y0006363D01*
X0005064Y0006249D01*
X0005150Y0006139D01*
X0005239Y0006030D01*
X0005331Y0005924D01*
X0005426Y0005821D01*
X0005523Y0005720D01*
X0005624Y0005623D01*
X0005727Y0005528D01*
X0005833Y0005436D01*
X0005942Y0005347D01*
X0006052Y0005261D01*
X0006166Y0005178D01*
X0006281Y0005099D01*
X0006399Y0005022D01*
X0006519Y0004949D01*
X0006640Y0004880D01*
X0006764Y0004814D01*
X0006890Y0004751D01*
X0007017Y0004692D01*
X0007146Y0004637D01*
X0007276Y0004585D01*
X0007408Y0004537D01*
X0007541Y0004492D01*
X0007675Y0004451D01*
X0007810Y0004414D01*
X0007946Y0004381D01*
X0008084Y0004352D01*
X0008221Y0004327D01*
X0008360Y0004305D01*
X0008499Y0004287D01*
X0008639Y0004274D01*
X0008779Y0004264D01*
X0008919Y0004258D01*
X0009059Y0004256D01*
X0141264Y0071185D02*
X0141266Y0071333D01*
X0141272Y0071481D01*
X0141282Y0071629D01*
X0141296Y0071776D01*
X0141314Y0071923D01*
X0141335Y0072069D01*
X0141361Y0072215D01*
X0141391Y0072360D01*
X0141424Y0072504D01*
X0141462Y0072647D01*
X0141503Y0072789D01*
X0141548Y0072930D01*
X0141596Y0073070D01*
X0141649Y0073209D01*
X0141705Y0073346D01*
X0141765Y0073481D01*
X0141828Y0073615D01*
X0141895Y0073747D01*
X0141966Y0073877D01*
X0142040Y0074005D01*
X0142117Y0074131D01*
X0142198Y0074255D01*
X0142282Y0074377D01*
X0142369Y0074496D01*
X0142460Y0074613D01*
X0142554Y0074728D01*
X0142650Y0074840D01*
X0142750Y0074950D01*
X0142852Y0075056D01*
X0142958Y0075160D01*
X0143066Y0075261D01*
X0143177Y0075359D01*
X0143290Y0075455D01*
X0143406Y0075547D01*
X0143524Y0075636D01*
X0143645Y0075721D01*
X0143768Y0075804D01*
X0143893Y0075883D01*
X0144020Y0075959D01*
X0144149Y0076031D01*
X0144280Y0076100D01*
X0144413Y0076165D01*
X0144548Y0076226D01*
X0144684Y0076284D01*
X0144821Y0076339D01*
X0144960Y0076389D01*
X0145101Y0076436D01*
X0145242Y0076479D01*
X0145385Y0076519D01*
X0145529Y0076554D01*
X0145673Y0076586D01*
X0145819Y0076613D01*
X0145965Y0076637D01*
X0146112Y0076657D01*
X0146259Y0076673D01*
X0146406Y0076685D01*
X0146554Y0076693D01*
X0146702Y0076697D01*
X0146850Y0076697D01*
X0146998Y0076693D01*
X0147146Y0076685D01*
X0147293Y0076673D01*
X0147440Y0076657D01*
X0147587Y0076637D01*
X0147733Y0076613D01*
X0147879Y0076586D01*
X0148023Y0076554D01*
X0148167Y0076519D01*
X0148310Y0076479D01*
X0148451Y0076436D01*
X0148592Y0076389D01*
X0148731Y0076339D01*
X0148868Y0076284D01*
X0149004Y0076226D01*
X0149139Y0076165D01*
X0149272Y0076100D01*
X0149403Y0076031D01*
X0149532Y0075959D01*
X0149659Y0075883D01*
X0149784Y0075804D01*
X0149907Y0075721D01*
X0150028Y0075636D01*
X0150146Y0075547D01*
X0150262Y0075455D01*
X0150375Y0075359D01*
X0150486Y0075261D01*
X0150594Y0075160D01*
X0150700Y0075056D01*
X0150802Y0074950D01*
X0150902Y0074840D01*
X0150998Y0074728D01*
X0151092Y0074613D01*
X0151183Y0074496D01*
X0151270Y0074377D01*
X0151354Y0074255D01*
X0151435Y0074131D01*
X0151512Y0074005D01*
X0151586Y0073877D01*
X0151657Y0073747D01*
X0151724Y0073615D01*
X0151787Y0073481D01*
X0151847Y0073346D01*
X0151903Y0073209D01*
X0151956Y0073070D01*
X0152004Y0072930D01*
X0152049Y0072789D01*
X0152090Y0072647D01*
X0152128Y0072504D01*
X0152161Y0072360D01*
X0152191Y0072215D01*
X0152217Y0072069D01*
X0152238Y0071923D01*
X0152256Y0071776D01*
X0152270Y0071629D01*
X0152280Y0071481D01*
X0152286Y0071333D01*
X0152288Y0071185D01*
X0152286Y0071037D01*
X0152280Y0070889D01*
X0152270Y0070741D01*
X0152256Y0070594D01*
X0152238Y0070447D01*
X0152217Y0070301D01*
X0152191Y0070155D01*
X0152161Y0070010D01*
X0152128Y0069866D01*
X0152090Y0069723D01*
X0152049Y0069581D01*
X0152004Y0069440D01*
X0151956Y0069300D01*
X0151903Y0069161D01*
X0151847Y0069024D01*
X0151787Y0068889D01*
X0151724Y0068755D01*
X0151657Y0068623D01*
X0151586Y0068493D01*
X0151512Y0068365D01*
X0151435Y0068239D01*
X0151354Y0068115D01*
X0151270Y0067993D01*
X0151183Y0067874D01*
X0151092Y0067757D01*
X0150998Y0067642D01*
X0150902Y0067530D01*
X0150802Y0067420D01*
X0150700Y0067314D01*
X0150594Y0067210D01*
X0150486Y0067109D01*
X0150375Y0067011D01*
X0150262Y0066915D01*
X0150146Y0066823D01*
X0150028Y0066734D01*
X0149907Y0066649D01*
X0149784Y0066566D01*
X0149659Y0066487D01*
X0149532Y0066411D01*
X0149403Y0066339D01*
X0149272Y0066270D01*
X0149139Y0066205D01*
X0149004Y0066144D01*
X0148868Y0066086D01*
X0148731Y0066031D01*
X0148592Y0065981D01*
X0148451Y0065934D01*
X0148310Y0065891D01*
X0148167Y0065851D01*
X0148023Y0065816D01*
X0147879Y0065784D01*
X0147733Y0065757D01*
X0147587Y0065733D01*
X0147440Y0065713D01*
X0147293Y0065697D01*
X0147146Y0065685D01*
X0146998Y0065677D01*
X0146850Y0065673D01*
X0146702Y0065673D01*
X0146554Y0065677D01*
X0146406Y0065685D01*
X0146259Y0065697D01*
X0146112Y0065713D01*
X0145965Y0065733D01*
X0145819Y0065757D01*
X0145673Y0065784D01*
X0145529Y0065816D01*
X0145385Y0065851D01*
X0145242Y0065891D01*
X0145101Y0065934D01*
X0144960Y0065981D01*
X0144821Y0066031D01*
X0144684Y0066086D01*
X0144548Y0066144D01*
X0144413Y0066205D01*
X0144280Y0066270D01*
X0144149Y0066339D01*
X0144020Y0066411D01*
X0143893Y0066487D01*
X0143768Y0066566D01*
X0143645Y0066649D01*
X0143524Y0066734D01*
X0143406Y0066823D01*
X0143290Y0066915D01*
X0143177Y0067011D01*
X0143066Y0067109D01*
X0142958Y0067210D01*
X0142852Y0067314D01*
X0142750Y0067420D01*
X0142650Y0067530D01*
X0142554Y0067642D01*
X0142460Y0067757D01*
X0142369Y0067874D01*
X0142282Y0067993D01*
X0142198Y0068115D01*
X0142117Y0068239D01*
X0142040Y0068365D01*
X0141966Y0068493D01*
X0141895Y0068623D01*
X0141828Y0068755D01*
X0141765Y0068889D01*
X0141705Y0069024D01*
X0141649Y0069161D01*
X0141596Y0069300D01*
X0141548Y0069440D01*
X0141503Y0069581D01*
X0141462Y0069723D01*
X0141424Y0069866D01*
X0141391Y0070010D01*
X0141361Y0070155D01*
X0141335Y0070301D01*
X0141314Y0070447D01*
X0141296Y0070594D01*
X0141282Y0070741D01*
X0141272Y0070889D01*
X0141266Y0071037D01*
X0141264Y0071185D01*
X0097169Y0138114D02*
X0097172Y0138375D01*
X0097182Y0138636D01*
X0097198Y0138896D01*
X0097220Y0139156D01*
X0097249Y0139415D01*
X0097284Y0139674D01*
X0097325Y0139931D01*
X0097373Y0140188D01*
X0097427Y0140443D01*
X0097488Y0140697D01*
X0097554Y0140949D01*
X0097627Y0141200D01*
X0097706Y0141448D01*
X0097790Y0141695D01*
X0097881Y0141940D01*
X0097978Y0142182D01*
X0098081Y0142422D01*
X0098190Y0142659D01*
X0098304Y0142893D01*
X0098424Y0143125D01*
X0098550Y0143354D01*
X0098681Y0143579D01*
X0098818Y0143801D01*
X0098960Y0144020D01*
X0099108Y0144235D01*
X0099261Y0144446D01*
X0099419Y0144654D01*
X0099582Y0144858D01*
X0099750Y0145057D01*
X0099923Y0145253D01*
X0100100Y0145444D01*
X0100282Y0145631D01*
X0100469Y0145813D01*
X0100660Y0145990D01*
X0100856Y0146163D01*
X0101055Y0146331D01*
X0101259Y0146494D01*
X0101467Y0146652D01*
X0101678Y0146805D01*
X0101893Y0146953D01*
X0102112Y0147095D01*
X0102334Y0147232D01*
X0102559Y0147363D01*
X0102788Y0147489D01*
X0103020Y0147609D01*
X0103254Y0147723D01*
X0103491Y0147832D01*
X0103731Y0147935D01*
X0103973Y0148032D01*
X0104218Y0148123D01*
X0104465Y0148207D01*
X0104713Y0148286D01*
X0104964Y0148359D01*
X0105216Y0148425D01*
X0105470Y0148486D01*
X0105725Y0148540D01*
X0105982Y0148588D01*
X0106239Y0148629D01*
X0106498Y0148664D01*
X0106757Y0148693D01*
X0107017Y0148715D01*
X0107277Y0148731D01*
X0107538Y0148741D01*
X0107799Y0148744D01*
X0108060Y0148741D01*
X0108321Y0148731D01*
X0108581Y0148715D01*
X0108841Y0148693D01*
X0109100Y0148664D01*
X0109359Y0148629D01*
X0109616Y0148588D01*
X0109873Y0148540D01*
X0110128Y0148486D01*
X0110382Y0148425D01*
X0110634Y0148359D01*
X0110885Y0148286D01*
X0111133Y0148207D01*
X0111380Y0148123D01*
X0111625Y0148032D01*
X0111867Y0147935D01*
X0112107Y0147832D01*
X0112344Y0147723D01*
X0112578Y0147609D01*
X0112810Y0147489D01*
X0113039Y0147363D01*
X0113264Y0147232D01*
X0113486Y0147095D01*
X0113705Y0146953D01*
X0113920Y0146805D01*
X0114131Y0146652D01*
X0114339Y0146494D01*
X0114543Y0146331D01*
X0114742Y0146163D01*
X0114938Y0145990D01*
X0115129Y0145813D01*
X0115316Y0145631D01*
X0115498Y0145444D01*
X0115675Y0145253D01*
X0115848Y0145057D01*
X0116016Y0144858D01*
X0116179Y0144654D01*
X0116337Y0144446D01*
X0116490Y0144235D01*
X0116638Y0144020D01*
X0116780Y0143801D01*
X0116917Y0143579D01*
X0117048Y0143354D01*
X0117174Y0143125D01*
X0117294Y0142893D01*
X0117408Y0142659D01*
X0117517Y0142422D01*
X0117620Y0142182D01*
X0117717Y0141940D01*
X0117808Y0141695D01*
X0117892Y0141448D01*
X0117971Y0141200D01*
X0118044Y0140949D01*
X0118110Y0140697D01*
X0118171Y0140443D01*
X0118225Y0140188D01*
X0118273Y0139931D01*
X0118314Y0139674D01*
X0118349Y0139415D01*
X0118378Y0139156D01*
X0118400Y0138896D01*
X0118416Y0138636D01*
X0118426Y0138375D01*
X0118429Y0138114D01*
X0118426Y0137853D01*
X0118416Y0137592D01*
X0118400Y0137332D01*
X0118378Y0137072D01*
X0118349Y0136813D01*
X0118314Y0136554D01*
X0118273Y0136297D01*
X0118225Y0136040D01*
X0118171Y0135785D01*
X0118110Y0135531D01*
X0118044Y0135279D01*
X0117971Y0135028D01*
X0117892Y0134780D01*
X0117808Y0134533D01*
X0117717Y0134288D01*
X0117620Y0134046D01*
X0117517Y0133806D01*
X0117408Y0133569D01*
X0117294Y0133335D01*
X0117174Y0133103D01*
X0117048Y0132874D01*
X0116917Y0132649D01*
X0116780Y0132427D01*
X0116638Y0132208D01*
X0116490Y0131993D01*
X0116337Y0131782D01*
X0116179Y0131574D01*
X0116016Y0131370D01*
X0115848Y0131171D01*
X0115675Y0130975D01*
X0115498Y0130784D01*
X0115316Y0130597D01*
X0115129Y0130415D01*
X0114938Y0130238D01*
X0114742Y0130065D01*
X0114543Y0129897D01*
X0114339Y0129734D01*
X0114131Y0129576D01*
X0113920Y0129423D01*
X0113705Y0129275D01*
X0113486Y0129133D01*
X0113264Y0128996D01*
X0113039Y0128865D01*
X0112810Y0128739D01*
X0112578Y0128619D01*
X0112344Y0128505D01*
X0112107Y0128396D01*
X0111867Y0128293D01*
X0111625Y0128196D01*
X0111380Y0128105D01*
X0111133Y0128021D01*
X0110885Y0127942D01*
X0110634Y0127869D01*
X0110382Y0127803D01*
X0110128Y0127742D01*
X0109873Y0127688D01*
X0109616Y0127640D01*
X0109359Y0127599D01*
X0109100Y0127564D01*
X0108841Y0127535D01*
X0108581Y0127513D01*
X0108321Y0127497D01*
X0108060Y0127487D01*
X0107799Y0127484D01*
X0107538Y0127487D01*
X0107277Y0127497D01*
X0107017Y0127513D01*
X0106757Y0127535D01*
X0106498Y0127564D01*
X0106239Y0127599D01*
X0105982Y0127640D01*
X0105725Y0127688D01*
X0105470Y0127742D01*
X0105216Y0127803D01*
X0104964Y0127869D01*
X0104713Y0127942D01*
X0104465Y0128021D01*
X0104218Y0128105D01*
X0103973Y0128196D01*
X0103731Y0128293D01*
X0103491Y0128396D01*
X0103254Y0128505D01*
X0103020Y0128619D01*
X0102788Y0128739D01*
X0102559Y0128865D01*
X0102334Y0128996D01*
X0102112Y0129133D01*
X0101893Y0129275D01*
X0101678Y0129423D01*
X0101467Y0129576D01*
X0101259Y0129734D01*
X0101055Y0129897D01*
X0100856Y0130065D01*
X0100660Y0130238D01*
X0100469Y0130415D01*
X0100282Y0130597D01*
X0100100Y0130784D01*
X0099923Y0130975D01*
X0099750Y0131171D01*
X0099582Y0131370D01*
X0099419Y0131574D01*
X0099261Y0131782D01*
X0099108Y0131993D01*
X0098960Y0132208D01*
X0098818Y0132427D01*
X0098681Y0132649D01*
X0098550Y0132874D01*
X0098424Y0133103D01*
X0098304Y0133335D01*
X0098190Y0133569D01*
X0098081Y0133806D01*
X0097978Y0134046D01*
X0097881Y0134288D01*
X0097790Y0134533D01*
X0097706Y0134780D01*
X0097627Y0135028D01*
X0097554Y0135279D01*
X0097488Y0135531D01*
X0097427Y0135785D01*
X0097373Y0136040D01*
X0097325Y0136297D01*
X0097284Y0136554D01*
X0097249Y0136813D01*
X0097220Y0137072D01*
X0097198Y0137332D01*
X0097182Y0137592D01*
X0097172Y0137853D01*
X0097169Y0138114D01*
X0055824Y0138114D02*
X0055826Y0138188D01*
X0055832Y0138262D01*
X0055842Y0138335D01*
X0055856Y0138408D01*
X0055873Y0138480D01*
X0055895Y0138550D01*
X0055920Y0138620D01*
X0055949Y0138688D01*
X0055982Y0138754D01*
X0056018Y0138819D01*
X0056058Y0138881D01*
X0056100Y0138942D01*
X0056146Y0139000D01*
X0056195Y0139055D01*
X0056247Y0139108D01*
X0056302Y0139158D01*
X0056359Y0139204D01*
X0056419Y0139248D01*
X0056481Y0139288D01*
X0056545Y0139325D01*
X0056611Y0139359D01*
X0056679Y0139389D01*
X0056748Y0139415D01*
X0056819Y0139438D01*
X0056890Y0139456D01*
X0056963Y0139471D01*
X0057036Y0139482D01*
X0057110Y0139489D01*
X0057184Y0139492D01*
X0057257Y0139491D01*
X0057331Y0139486D01*
X0057405Y0139477D01*
X0057478Y0139464D01*
X0057550Y0139447D01*
X0057621Y0139427D01*
X0057691Y0139402D01*
X0057759Y0139374D01*
X0057826Y0139343D01*
X0057891Y0139307D01*
X0057954Y0139269D01*
X0058015Y0139227D01*
X0058074Y0139181D01*
X0058130Y0139133D01*
X0058183Y0139082D01*
X0058233Y0139028D01*
X0058281Y0138971D01*
X0058325Y0138912D01*
X0058367Y0138850D01*
X0058405Y0138787D01*
X0058439Y0138721D01*
X0058470Y0138654D01*
X0058497Y0138585D01*
X0058520Y0138515D01*
X0058540Y0138444D01*
X0058556Y0138371D01*
X0058568Y0138298D01*
X0058576Y0138225D01*
X0058580Y0138151D01*
X0058580Y0138077D01*
X0058576Y0138003D01*
X0058568Y0137930D01*
X0058556Y0137857D01*
X0058540Y0137784D01*
X0058520Y0137713D01*
X0058497Y0137643D01*
X0058470Y0137574D01*
X0058439Y0137507D01*
X0058405Y0137441D01*
X0058367Y0137378D01*
X0058325Y0137316D01*
X0058281Y0137257D01*
X0058233Y0137200D01*
X0058183Y0137146D01*
X0058130Y0137095D01*
X0058074Y0137047D01*
X0058015Y0137001D01*
X0057954Y0136959D01*
X0057891Y0136921D01*
X0057826Y0136885D01*
X0057759Y0136854D01*
X0057691Y0136826D01*
X0057621Y0136801D01*
X0057550Y0136781D01*
X0057478Y0136764D01*
X0057405Y0136751D01*
X0057331Y0136742D01*
X0057257Y0136737D01*
X0057184Y0136736D01*
X0057110Y0136739D01*
X0057036Y0136746D01*
X0056963Y0136757D01*
X0056890Y0136772D01*
X0056819Y0136790D01*
X0056748Y0136813D01*
X0056679Y0136839D01*
X0056611Y0136869D01*
X0056545Y0136903D01*
X0056481Y0136940D01*
X0056419Y0136980D01*
X0056359Y0137024D01*
X0056302Y0137070D01*
X0056247Y0137120D01*
X0056195Y0137173D01*
X0056146Y0137228D01*
X0056100Y0137286D01*
X0056058Y0137347D01*
X0056018Y0137409D01*
X0055982Y0137474D01*
X0055949Y0137540D01*
X0055920Y0137608D01*
X0055895Y0137678D01*
X0055873Y0137748D01*
X0055856Y0137820D01*
X0055842Y0137893D01*
X0055832Y0137966D01*
X0055826Y0138040D01*
X0055824Y0138114D01*
X0125319Y0184965D02*
X0125321Y0185066D01*
X0125327Y0185167D01*
X0125337Y0185268D01*
X0125351Y0185368D01*
X0125369Y0185467D01*
X0125391Y0185566D01*
X0125416Y0185664D01*
X0125446Y0185761D01*
X0125479Y0185856D01*
X0125516Y0185950D01*
X0125557Y0186043D01*
X0125601Y0186134D01*
X0125649Y0186223D01*
X0125701Y0186310D01*
X0125756Y0186395D01*
X0125814Y0186477D01*
X0125875Y0186558D01*
X0125940Y0186636D01*
X0126007Y0186711D01*
X0126077Y0186783D01*
X0126151Y0186853D01*
X0126227Y0186920D01*
X0126305Y0186984D01*
X0126386Y0187044D01*
X0126469Y0187101D01*
X0126555Y0187155D01*
X0126643Y0187206D01*
X0126732Y0187253D01*
X0126823Y0187297D01*
X0126916Y0187336D01*
X0127011Y0187373D01*
X0127106Y0187405D01*
X0127203Y0187434D01*
X0127302Y0187458D01*
X0127400Y0187479D01*
X0127500Y0187496D01*
X0127600Y0187509D01*
X0127701Y0187518D01*
X0127802Y0187523D01*
X0127903Y0187524D01*
X0128004Y0187521D01*
X0128105Y0187514D01*
X0128206Y0187503D01*
X0128306Y0187488D01*
X0128405Y0187469D01*
X0128504Y0187446D01*
X0128601Y0187420D01*
X0128698Y0187389D01*
X0128793Y0187355D01*
X0128886Y0187317D01*
X0128979Y0187275D01*
X0129069Y0187230D01*
X0129158Y0187181D01*
X0129244Y0187129D01*
X0129328Y0187073D01*
X0129411Y0187014D01*
X0129490Y0186952D01*
X0129568Y0186887D01*
X0129642Y0186819D01*
X0129714Y0186747D01*
X0129783Y0186674D01*
X0129849Y0186597D01*
X0129912Y0186518D01*
X0129972Y0186436D01*
X0130028Y0186352D01*
X0130081Y0186266D01*
X0130131Y0186178D01*
X0130177Y0186088D01*
X0130220Y0185997D01*
X0130259Y0185903D01*
X0130294Y0185808D01*
X0130325Y0185712D01*
X0130353Y0185615D01*
X0130377Y0185517D01*
X0130397Y0185418D01*
X0130413Y0185318D01*
X0130425Y0185217D01*
X0130433Y0185117D01*
X0130437Y0185016D01*
X0130437Y0184914D01*
X0130433Y0184813D01*
X0130425Y0184713D01*
X0130413Y0184612D01*
X0130397Y0184512D01*
X0130377Y0184413D01*
X0130353Y0184315D01*
X0130325Y0184218D01*
X0130294Y0184122D01*
X0130259Y0184027D01*
X0130220Y0183933D01*
X0130177Y0183842D01*
X0130131Y0183752D01*
X0130081Y0183664D01*
X0130028Y0183578D01*
X0129972Y0183494D01*
X0129912Y0183412D01*
X0129849Y0183333D01*
X0129783Y0183256D01*
X0129714Y0183183D01*
X0129642Y0183111D01*
X0129568Y0183043D01*
X0129490Y0182978D01*
X0129411Y0182916D01*
X0129328Y0182857D01*
X0129244Y0182801D01*
X0129157Y0182749D01*
X0129069Y0182700D01*
X0128979Y0182655D01*
X0128886Y0182613D01*
X0128793Y0182575D01*
X0128698Y0182541D01*
X0128601Y0182510D01*
X0128504Y0182484D01*
X0128405Y0182461D01*
X0128306Y0182442D01*
X0128206Y0182427D01*
X0128105Y0182416D01*
X0128004Y0182409D01*
X0127903Y0182406D01*
X0127802Y0182407D01*
X0127701Y0182412D01*
X0127600Y0182421D01*
X0127500Y0182434D01*
X0127400Y0182451D01*
X0127302Y0182472D01*
X0127203Y0182496D01*
X0127106Y0182525D01*
X0127011Y0182557D01*
X0126916Y0182594D01*
X0126823Y0182633D01*
X0126732Y0182677D01*
X0126643Y0182724D01*
X0126555Y0182775D01*
X0126469Y0182829D01*
X0126386Y0182886D01*
X0126305Y0182946D01*
X0126227Y0183010D01*
X0126151Y0183077D01*
X0126077Y0183147D01*
X0126007Y0183219D01*
X0125940Y0183294D01*
X0125875Y0183372D01*
X0125814Y0183453D01*
X0125756Y0183535D01*
X0125701Y0183620D01*
X0125649Y0183707D01*
X0125601Y0183796D01*
X0125557Y0183887D01*
X0125516Y0183980D01*
X0125479Y0184074D01*
X0125446Y0184169D01*
X0125416Y0184266D01*
X0125391Y0184364D01*
X0125369Y0184463D01*
X0125351Y0184562D01*
X0125337Y0184662D01*
X0125327Y0184763D01*
X0125321Y0184864D01*
X0125319Y0184965D01*
X0145004Y0184965D02*
X0145006Y0185066D01*
X0145012Y0185167D01*
X0145022Y0185268D01*
X0145036Y0185368D01*
X0145054Y0185467D01*
X0145076Y0185566D01*
X0145101Y0185664D01*
X0145131Y0185761D01*
X0145164Y0185856D01*
X0145201Y0185950D01*
X0145242Y0186043D01*
X0145286Y0186134D01*
X0145334Y0186223D01*
X0145386Y0186310D01*
X0145441Y0186395D01*
X0145499Y0186477D01*
X0145560Y0186558D01*
X0145625Y0186636D01*
X0145692Y0186711D01*
X0145762Y0186783D01*
X0145836Y0186853D01*
X0145912Y0186920D01*
X0145990Y0186984D01*
X0146071Y0187044D01*
X0146154Y0187101D01*
X0146240Y0187155D01*
X0146328Y0187206D01*
X0146417Y0187253D01*
X0146508Y0187297D01*
X0146601Y0187336D01*
X0146696Y0187373D01*
X0146791Y0187405D01*
X0146888Y0187434D01*
X0146987Y0187458D01*
X0147085Y0187479D01*
X0147185Y0187496D01*
X0147285Y0187509D01*
X0147386Y0187518D01*
X0147487Y0187523D01*
X0147588Y0187524D01*
X0147689Y0187521D01*
X0147790Y0187514D01*
X0147891Y0187503D01*
X0147991Y0187488D01*
X0148090Y0187469D01*
X0148189Y0187446D01*
X0148286Y0187420D01*
X0148383Y0187389D01*
X0148478Y0187355D01*
X0148571Y0187317D01*
X0148664Y0187275D01*
X0148754Y0187230D01*
X0148843Y0187181D01*
X0148929Y0187129D01*
X0149013Y0187073D01*
X0149096Y0187014D01*
X0149175Y0186952D01*
X0149253Y0186887D01*
X0149327Y0186819D01*
X0149399Y0186747D01*
X0149468Y0186674D01*
X0149534Y0186597D01*
X0149597Y0186518D01*
X0149657Y0186436D01*
X0149713Y0186352D01*
X0149766Y0186266D01*
X0149816Y0186178D01*
X0149862Y0186088D01*
X0149905Y0185997D01*
X0149944Y0185903D01*
X0149979Y0185808D01*
X0150010Y0185712D01*
X0150038Y0185615D01*
X0150062Y0185517D01*
X0150082Y0185418D01*
X0150098Y0185318D01*
X0150110Y0185217D01*
X0150118Y0185117D01*
X0150122Y0185016D01*
X0150122Y0184914D01*
X0150118Y0184813D01*
X0150110Y0184713D01*
X0150098Y0184612D01*
X0150082Y0184512D01*
X0150062Y0184413D01*
X0150038Y0184315D01*
X0150010Y0184218D01*
X0149979Y0184122D01*
X0149944Y0184027D01*
X0149905Y0183933D01*
X0149862Y0183842D01*
X0149816Y0183752D01*
X0149766Y0183664D01*
X0149713Y0183578D01*
X0149657Y0183494D01*
X0149597Y0183412D01*
X0149534Y0183333D01*
X0149468Y0183256D01*
X0149399Y0183183D01*
X0149327Y0183111D01*
X0149253Y0183043D01*
X0149175Y0182978D01*
X0149096Y0182916D01*
X0149013Y0182857D01*
X0148929Y0182801D01*
X0148842Y0182749D01*
X0148754Y0182700D01*
X0148664Y0182655D01*
X0148571Y0182613D01*
X0148478Y0182575D01*
X0148383Y0182541D01*
X0148286Y0182510D01*
X0148189Y0182484D01*
X0148090Y0182461D01*
X0147991Y0182442D01*
X0147891Y0182427D01*
X0147790Y0182416D01*
X0147689Y0182409D01*
X0147588Y0182406D01*
X0147487Y0182407D01*
X0147386Y0182412D01*
X0147285Y0182421D01*
X0147185Y0182434D01*
X0147085Y0182451D01*
X0146987Y0182472D01*
X0146888Y0182496D01*
X0146791Y0182525D01*
X0146696Y0182557D01*
X0146601Y0182594D01*
X0146508Y0182633D01*
X0146417Y0182677D01*
X0146328Y0182724D01*
X0146240Y0182775D01*
X0146154Y0182829D01*
X0146071Y0182886D01*
X0145990Y0182946D01*
X0145912Y0183010D01*
X0145836Y0183077D01*
X0145762Y0183147D01*
X0145692Y0183219D01*
X0145625Y0183294D01*
X0145560Y0183372D01*
X0145499Y0183453D01*
X0145441Y0183535D01*
X0145386Y0183620D01*
X0145334Y0183707D01*
X0145286Y0183796D01*
X0145242Y0183887D01*
X0145201Y0183980D01*
X0145164Y0184074D01*
X0145131Y0184169D01*
X0145101Y0184266D01*
X0145076Y0184364D01*
X0145054Y0184463D01*
X0145036Y0184562D01*
X0145022Y0184662D01*
X0145012Y0184763D01*
X0145006Y0184864D01*
X0145004Y0184965D01*
X0200122Y0184965D02*
X0200124Y0185066D01*
X0200130Y0185167D01*
X0200140Y0185268D01*
X0200154Y0185368D01*
X0200172Y0185467D01*
X0200194Y0185566D01*
X0200219Y0185664D01*
X0200249Y0185761D01*
X0200282Y0185856D01*
X0200319Y0185950D01*
X0200360Y0186043D01*
X0200404Y0186134D01*
X0200452Y0186223D01*
X0200504Y0186310D01*
X0200559Y0186395D01*
X0200617Y0186477D01*
X0200678Y0186558D01*
X0200743Y0186636D01*
X0200810Y0186711D01*
X0200880Y0186783D01*
X0200954Y0186853D01*
X0201030Y0186920D01*
X0201108Y0186984D01*
X0201189Y0187044D01*
X0201272Y0187101D01*
X0201358Y0187155D01*
X0201446Y0187206D01*
X0201535Y0187253D01*
X0201626Y0187297D01*
X0201719Y0187336D01*
X0201814Y0187373D01*
X0201909Y0187405D01*
X0202006Y0187434D01*
X0202105Y0187458D01*
X0202203Y0187479D01*
X0202303Y0187496D01*
X0202403Y0187509D01*
X0202504Y0187518D01*
X0202605Y0187523D01*
X0202706Y0187524D01*
X0202807Y0187521D01*
X0202908Y0187514D01*
X0203009Y0187503D01*
X0203109Y0187488D01*
X0203208Y0187469D01*
X0203307Y0187446D01*
X0203404Y0187420D01*
X0203501Y0187389D01*
X0203596Y0187355D01*
X0203689Y0187317D01*
X0203782Y0187275D01*
X0203872Y0187230D01*
X0203961Y0187181D01*
X0204047Y0187129D01*
X0204131Y0187073D01*
X0204214Y0187014D01*
X0204293Y0186952D01*
X0204371Y0186887D01*
X0204445Y0186819D01*
X0204517Y0186747D01*
X0204586Y0186674D01*
X0204652Y0186597D01*
X0204715Y0186518D01*
X0204775Y0186436D01*
X0204831Y0186352D01*
X0204884Y0186266D01*
X0204934Y0186178D01*
X0204980Y0186088D01*
X0205023Y0185997D01*
X0205062Y0185903D01*
X0205097Y0185808D01*
X0205128Y0185712D01*
X0205156Y0185615D01*
X0205180Y0185517D01*
X0205200Y0185418D01*
X0205216Y0185318D01*
X0205228Y0185217D01*
X0205236Y0185117D01*
X0205240Y0185016D01*
X0205240Y0184914D01*
X0205236Y0184813D01*
X0205228Y0184713D01*
X0205216Y0184612D01*
X0205200Y0184512D01*
X0205180Y0184413D01*
X0205156Y0184315D01*
X0205128Y0184218D01*
X0205097Y0184122D01*
X0205062Y0184027D01*
X0205023Y0183933D01*
X0204980Y0183842D01*
X0204934Y0183752D01*
X0204884Y0183664D01*
X0204831Y0183578D01*
X0204775Y0183494D01*
X0204715Y0183412D01*
X0204652Y0183333D01*
X0204586Y0183256D01*
X0204517Y0183183D01*
X0204445Y0183111D01*
X0204371Y0183043D01*
X0204293Y0182978D01*
X0204214Y0182916D01*
X0204131Y0182857D01*
X0204047Y0182801D01*
X0203960Y0182749D01*
X0203872Y0182700D01*
X0203782Y0182655D01*
X0203689Y0182613D01*
X0203596Y0182575D01*
X0203501Y0182541D01*
X0203404Y0182510D01*
X0203307Y0182484D01*
X0203208Y0182461D01*
X0203109Y0182442D01*
X0203009Y0182427D01*
X0202908Y0182416D01*
X0202807Y0182409D01*
X0202706Y0182406D01*
X0202605Y0182407D01*
X0202504Y0182412D01*
X0202403Y0182421D01*
X0202303Y0182434D01*
X0202203Y0182451D01*
X0202105Y0182472D01*
X0202006Y0182496D01*
X0201909Y0182525D01*
X0201814Y0182557D01*
X0201719Y0182594D01*
X0201626Y0182633D01*
X0201535Y0182677D01*
X0201446Y0182724D01*
X0201358Y0182775D01*
X0201272Y0182829D01*
X0201189Y0182886D01*
X0201108Y0182946D01*
X0201030Y0183010D01*
X0200954Y0183077D01*
X0200880Y0183147D01*
X0200810Y0183219D01*
X0200743Y0183294D01*
X0200678Y0183372D01*
X0200617Y0183453D01*
X0200559Y0183535D01*
X0200504Y0183620D01*
X0200452Y0183707D01*
X0200404Y0183796D01*
X0200360Y0183887D01*
X0200319Y0183980D01*
X0200282Y0184074D01*
X0200249Y0184169D01*
X0200219Y0184266D01*
X0200194Y0184364D01*
X0200172Y0184463D01*
X0200154Y0184562D01*
X0200140Y0184662D01*
X0200130Y0184763D01*
X0200124Y0184864D01*
X0200122Y0184965D01*
X0219807Y0184965D02*
X0219809Y0185066D01*
X0219815Y0185167D01*
X0219825Y0185268D01*
X0219839Y0185368D01*
X0219857Y0185467D01*
X0219879Y0185566D01*
X0219904Y0185664D01*
X0219934Y0185761D01*
X0219967Y0185856D01*
X0220004Y0185950D01*
X0220045Y0186043D01*
X0220089Y0186134D01*
X0220137Y0186223D01*
X0220189Y0186310D01*
X0220244Y0186395D01*
X0220302Y0186477D01*
X0220363Y0186558D01*
X0220428Y0186636D01*
X0220495Y0186711D01*
X0220565Y0186783D01*
X0220639Y0186853D01*
X0220715Y0186920D01*
X0220793Y0186984D01*
X0220874Y0187044D01*
X0220957Y0187101D01*
X0221043Y0187155D01*
X0221131Y0187206D01*
X0221220Y0187253D01*
X0221311Y0187297D01*
X0221404Y0187336D01*
X0221499Y0187373D01*
X0221594Y0187405D01*
X0221691Y0187434D01*
X0221790Y0187458D01*
X0221888Y0187479D01*
X0221988Y0187496D01*
X0222088Y0187509D01*
X0222189Y0187518D01*
X0222290Y0187523D01*
X0222391Y0187524D01*
X0222492Y0187521D01*
X0222593Y0187514D01*
X0222694Y0187503D01*
X0222794Y0187488D01*
X0222893Y0187469D01*
X0222992Y0187446D01*
X0223089Y0187420D01*
X0223186Y0187389D01*
X0223281Y0187355D01*
X0223374Y0187317D01*
X0223467Y0187275D01*
X0223557Y0187230D01*
X0223646Y0187181D01*
X0223732Y0187129D01*
X0223816Y0187073D01*
X0223899Y0187014D01*
X0223978Y0186952D01*
X0224056Y0186887D01*
X0224130Y0186819D01*
X0224202Y0186747D01*
X0224271Y0186674D01*
X0224337Y0186597D01*
X0224400Y0186518D01*
X0224460Y0186436D01*
X0224516Y0186352D01*
X0224569Y0186266D01*
X0224619Y0186178D01*
X0224665Y0186088D01*
X0224708Y0185997D01*
X0224747Y0185903D01*
X0224782Y0185808D01*
X0224813Y0185712D01*
X0224841Y0185615D01*
X0224865Y0185517D01*
X0224885Y0185418D01*
X0224901Y0185318D01*
X0224913Y0185217D01*
X0224921Y0185117D01*
X0224925Y0185016D01*
X0224925Y0184914D01*
X0224921Y0184813D01*
X0224913Y0184713D01*
X0224901Y0184612D01*
X0224885Y0184512D01*
X0224865Y0184413D01*
X0224841Y0184315D01*
X0224813Y0184218D01*
X0224782Y0184122D01*
X0224747Y0184027D01*
X0224708Y0183933D01*
X0224665Y0183842D01*
X0224619Y0183752D01*
X0224569Y0183664D01*
X0224516Y0183578D01*
X0224460Y0183494D01*
X0224400Y0183412D01*
X0224337Y0183333D01*
X0224271Y0183256D01*
X0224202Y0183183D01*
X0224130Y0183111D01*
X0224056Y0183043D01*
X0223978Y0182978D01*
X0223899Y0182916D01*
X0223816Y0182857D01*
X0223732Y0182801D01*
X0223645Y0182749D01*
X0223557Y0182700D01*
X0223467Y0182655D01*
X0223374Y0182613D01*
X0223281Y0182575D01*
X0223186Y0182541D01*
X0223089Y0182510D01*
X0222992Y0182484D01*
X0222893Y0182461D01*
X0222794Y0182442D01*
X0222694Y0182427D01*
X0222593Y0182416D01*
X0222492Y0182409D01*
X0222391Y0182406D01*
X0222290Y0182407D01*
X0222189Y0182412D01*
X0222088Y0182421D01*
X0221988Y0182434D01*
X0221888Y0182451D01*
X0221790Y0182472D01*
X0221691Y0182496D01*
X0221594Y0182525D01*
X0221499Y0182557D01*
X0221404Y0182594D01*
X0221311Y0182633D01*
X0221220Y0182677D01*
X0221131Y0182724D01*
X0221043Y0182775D01*
X0220957Y0182829D01*
X0220874Y0182886D01*
X0220793Y0182946D01*
X0220715Y0183010D01*
X0220639Y0183077D01*
X0220565Y0183147D01*
X0220495Y0183219D01*
X0220428Y0183294D01*
X0220363Y0183372D01*
X0220302Y0183453D01*
X0220244Y0183535D01*
X0220189Y0183620D01*
X0220137Y0183707D01*
X0220089Y0183796D01*
X0220045Y0183887D01*
X0220004Y0183980D01*
X0219967Y0184074D01*
X0219934Y0184169D01*
X0219904Y0184266D01*
X0219879Y0184364D01*
X0219857Y0184463D01*
X0219839Y0184562D01*
X0219825Y0184662D01*
X0219815Y0184763D01*
X0219809Y0184864D01*
X0219807Y0184965D01*
X0274138Y0184965D02*
X0274140Y0185066D01*
X0274146Y0185167D01*
X0274156Y0185268D01*
X0274170Y0185368D01*
X0274188Y0185467D01*
X0274210Y0185566D01*
X0274235Y0185664D01*
X0274265Y0185761D01*
X0274298Y0185856D01*
X0274335Y0185950D01*
X0274376Y0186043D01*
X0274420Y0186134D01*
X0274468Y0186223D01*
X0274520Y0186310D01*
X0274575Y0186395D01*
X0274633Y0186477D01*
X0274694Y0186558D01*
X0274759Y0186636D01*
X0274826Y0186711D01*
X0274896Y0186783D01*
X0274970Y0186853D01*
X0275046Y0186920D01*
X0275124Y0186984D01*
X0275205Y0187044D01*
X0275288Y0187101D01*
X0275374Y0187155D01*
X0275462Y0187206D01*
X0275551Y0187253D01*
X0275642Y0187297D01*
X0275735Y0187336D01*
X0275830Y0187373D01*
X0275925Y0187405D01*
X0276022Y0187434D01*
X0276121Y0187458D01*
X0276219Y0187479D01*
X0276319Y0187496D01*
X0276419Y0187509D01*
X0276520Y0187518D01*
X0276621Y0187523D01*
X0276722Y0187524D01*
X0276823Y0187521D01*
X0276924Y0187514D01*
X0277025Y0187503D01*
X0277125Y0187488D01*
X0277224Y0187469D01*
X0277323Y0187446D01*
X0277420Y0187420D01*
X0277517Y0187389D01*
X0277612Y0187355D01*
X0277705Y0187317D01*
X0277798Y0187275D01*
X0277888Y0187230D01*
X0277977Y0187181D01*
X0278063Y0187129D01*
X0278147Y0187073D01*
X0278230Y0187014D01*
X0278309Y0186952D01*
X0278387Y0186887D01*
X0278461Y0186819D01*
X0278533Y0186747D01*
X0278602Y0186674D01*
X0278668Y0186597D01*
X0278731Y0186518D01*
X0278791Y0186436D01*
X0278847Y0186352D01*
X0278900Y0186266D01*
X0278950Y0186178D01*
X0278996Y0186088D01*
X0279039Y0185997D01*
X0279078Y0185903D01*
X0279113Y0185808D01*
X0279144Y0185712D01*
X0279172Y0185615D01*
X0279196Y0185517D01*
X0279216Y0185418D01*
X0279232Y0185318D01*
X0279244Y0185217D01*
X0279252Y0185117D01*
X0279256Y0185016D01*
X0279256Y0184914D01*
X0279252Y0184813D01*
X0279244Y0184713D01*
X0279232Y0184612D01*
X0279216Y0184512D01*
X0279196Y0184413D01*
X0279172Y0184315D01*
X0279144Y0184218D01*
X0279113Y0184122D01*
X0279078Y0184027D01*
X0279039Y0183933D01*
X0278996Y0183842D01*
X0278950Y0183752D01*
X0278900Y0183664D01*
X0278847Y0183578D01*
X0278791Y0183494D01*
X0278731Y0183412D01*
X0278668Y0183333D01*
X0278602Y0183256D01*
X0278533Y0183183D01*
X0278461Y0183111D01*
X0278387Y0183043D01*
X0278309Y0182978D01*
X0278230Y0182916D01*
X0278147Y0182857D01*
X0278063Y0182801D01*
X0277976Y0182749D01*
X0277888Y0182700D01*
X0277798Y0182655D01*
X0277705Y0182613D01*
X0277612Y0182575D01*
X0277517Y0182541D01*
X0277420Y0182510D01*
X0277323Y0182484D01*
X0277224Y0182461D01*
X0277125Y0182442D01*
X0277025Y0182427D01*
X0276924Y0182416D01*
X0276823Y0182409D01*
X0276722Y0182406D01*
X0276621Y0182407D01*
X0276520Y0182412D01*
X0276419Y0182421D01*
X0276319Y0182434D01*
X0276219Y0182451D01*
X0276121Y0182472D01*
X0276022Y0182496D01*
X0275925Y0182525D01*
X0275830Y0182557D01*
X0275735Y0182594D01*
X0275642Y0182633D01*
X0275551Y0182677D01*
X0275462Y0182724D01*
X0275374Y0182775D01*
X0275288Y0182829D01*
X0275205Y0182886D01*
X0275124Y0182946D01*
X0275046Y0183010D01*
X0274970Y0183077D01*
X0274896Y0183147D01*
X0274826Y0183219D01*
X0274759Y0183294D01*
X0274694Y0183372D01*
X0274633Y0183453D01*
X0274575Y0183535D01*
X0274520Y0183620D01*
X0274468Y0183707D01*
X0274420Y0183796D01*
X0274376Y0183887D01*
X0274335Y0183980D01*
X0274298Y0184074D01*
X0274265Y0184169D01*
X0274235Y0184266D01*
X0274210Y0184364D01*
X0274188Y0184463D01*
X0274170Y0184562D01*
X0274156Y0184662D01*
X0274146Y0184763D01*
X0274140Y0184864D01*
X0274138Y0184965D01*
X0293823Y0184965D02*
X0293825Y0185066D01*
X0293831Y0185167D01*
X0293841Y0185268D01*
X0293855Y0185368D01*
X0293873Y0185467D01*
X0293895Y0185566D01*
X0293920Y0185664D01*
X0293950Y0185761D01*
X0293983Y0185856D01*
X0294020Y0185950D01*
X0294061Y0186043D01*
X0294105Y0186134D01*
X0294153Y0186223D01*
X0294205Y0186310D01*
X0294260Y0186395D01*
X0294318Y0186477D01*
X0294379Y0186558D01*
X0294444Y0186636D01*
X0294511Y0186711D01*
X0294581Y0186783D01*
X0294655Y0186853D01*
X0294731Y0186920D01*
X0294809Y0186984D01*
X0294890Y0187044D01*
X0294973Y0187101D01*
X0295059Y0187155D01*
X0295147Y0187206D01*
X0295236Y0187253D01*
X0295327Y0187297D01*
X0295420Y0187336D01*
X0295515Y0187373D01*
X0295610Y0187405D01*
X0295707Y0187434D01*
X0295806Y0187458D01*
X0295904Y0187479D01*
X0296004Y0187496D01*
X0296104Y0187509D01*
X0296205Y0187518D01*
X0296306Y0187523D01*
X0296407Y0187524D01*
X0296508Y0187521D01*
X0296609Y0187514D01*
X0296710Y0187503D01*
X0296810Y0187488D01*
X0296909Y0187469D01*
X0297008Y0187446D01*
X0297105Y0187420D01*
X0297202Y0187389D01*
X0297297Y0187355D01*
X0297390Y0187317D01*
X0297483Y0187275D01*
X0297573Y0187230D01*
X0297662Y0187181D01*
X0297748Y0187129D01*
X0297832Y0187073D01*
X0297915Y0187014D01*
X0297994Y0186952D01*
X0298072Y0186887D01*
X0298146Y0186819D01*
X0298218Y0186747D01*
X0298287Y0186674D01*
X0298353Y0186597D01*
X0298416Y0186518D01*
X0298476Y0186436D01*
X0298532Y0186352D01*
X0298585Y0186266D01*
X0298635Y0186178D01*
X0298681Y0186088D01*
X0298724Y0185997D01*
X0298763Y0185903D01*
X0298798Y0185808D01*
X0298829Y0185712D01*
X0298857Y0185615D01*
X0298881Y0185517D01*
X0298901Y0185418D01*
X0298917Y0185318D01*
X0298929Y0185217D01*
X0298937Y0185117D01*
X0298941Y0185016D01*
X0298941Y0184914D01*
X0298937Y0184813D01*
X0298929Y0184713D01*
X0298917Y0184612D01*
X0298901Y0184512D01*
X0298881Y0184413D01*
X0298857Y0184315D01*
X0298829Y0184218D01*
X0298798Y0184122D01*
X0298763Y0184027D01*
X0298724Y0183933D01*
X0298681Y0183842D01*
X0298635Y0183752D01*
X0298585Y0183664D01*
X0298532Y0183578D01*
X0298476Y0183494D01*
X0298416Y0183412D01*
X0298353Y0183333D01*
X0298287Y0183256D01*
X0298218Y0183183D01*
X0298146Y0183111D01*
X0298072Y0183043D01*
X0297994Y0182978D01*
X0297915Y0182916D01*
X0297832Y0182857D01*
X0297748Y0182801D01*
X0297661Y0182749D01*
X0297573Y0182700D01*
X0297483Y0182655D01*
X0297390Y0182613D01*
X0297297Y0182575D01*
X0297202Y0182541D01*
X0297105Y0182510D01*
X0297008Y0182484D01*
X0296909Y0182461D01*
X0296810Y0182442D01*
X0296710Y0182427D01*
X0296609Y0182416D01*
X0296508Y0182409D01*
X0296407Y0182406D01*
X0296306Y0182407D01*
X0296205Y0182412D01*
X0296104Y0182421D01*
X0296004Y0182434D01*
X0295904Y0182451D01*
X0295806Y0182472D01*
X0295707Y0182496D01*
X0295610Y0182525D01*
X0295515Y0182557D01*
X0295420Y0182594D01*
X0295327Y0182633D01*
X0295236Y0182677D01*
X0295147Y0182724D01*
X0295059Y0182775D01*
X0294973Y0182829D01*
X0294890Y0182886D01*
X0294809Y0182946D01*
X0294731Y0183010D01*
X0294655Y0183077D01*
X0294581Y0183147D01*
X0294511Y0183219D01*
X0294444Y0183294D01*
X0294379Y0183372D01*
X0294318Y0183453D01*
X0294260Y0183535D01*
X0294205Y0183620D01*
X0294153Y0183707D01*
X0294105Y0183796D01*
X0294061Y0183887D01*
X0294020Y0183980D01*
X0293983Y0184074D01*
X0293950Y0184169D01*
X0293920Y0184266D01*
X0293895Y0184364D01*
X0293873Y0184463D01*
X0293855Y0184562D01*
X0293841Y0184662D01*
X0293831Y0184763D01*
X0293825Y0184864D01*
X0293823Y0184965D01*
X0349335Y0184965D02*
X0349337Y0185066D01*
X0349343Y0185167D01*
X0349353Y0185268D01*
X0349367Y0185368D01*
X0349385Y0185467D01*
X0349407Y0185566D01*
X0349432Y0185664D01*
X0349462Y0185761D01*
X0349495Y0185856D01*
X0349532Y0185950D01*
X0349573Y0186043D01*
X0349617Y0186134D01*
X0349665Y0186223D01*
X0349717Y0186310D01*
X0349772Y0186395D01*
X0349830Y0186477D01*
X0349891Y0186558D01*
X0349956Y0186636D01*
X0350023Y0186711D01*
X0350093Y0186783D01*
X0350167Y0186853D01*
X0350243Y0186920D01*
X0350321Y0186984D01*
X0350402Y0187044D01*
X0350485Y0187101D01*
X0350571Y0187155D01*
X0350659Y0187206D01*
X0350748Y0187253D01*
X0350839Y0187297D01*
X0350932Y0187336D01*
X0351027Y0187373D01*
X0351122Y0187405D01*
X0351219Y0187434D01*
X0351318Y0187458D01*
X0351416Y0187479D01*
X0351516Y0187496D01*
X0351616Y0187509D01*
X0351717Y0187518D01*
X0351818Y0187523D01*
X0351919Y0187524D01*
X0352020Y0187521D01*
X0352121Y0187514D01*
X0352222Y0187503D01*
X0352322Y0187488D01*
X0352421Y0187469D01*
X0352520Y0187446D01*
X0352617Y0187420D01*
X0352714Y0187389D01*
X0352809Y0187355D01*
X0352902Y0187317D01*
X0352995Y0187275D01*
X0353085Y0187230D01*
X0353174Y0187181D01*
X0353260Y0187129D01*
X0353344Y0187073D01*
X0353427Y0187014D01*
X0353506Y0186952D01*
X0353584Y0186887D01*
X0353658Y0186819D01*
X0353730Y0186747D01*
X0353799Y0186674D01*
X0353865Y0186597D01*
X0353928Y0186518D01*
X0353988Y0186436D01*
X0354044Y0186352D01*
X0354097Y0186266D01*
X0354147Y0186178D01*
X0354193Y0186088D01*
X0354236Y0185997D01*
X0354275Y0185903D01*
X0354310Y0185808D01*
X0354341Y0185712D01*
X0354369Y0185615D01*
X0354393Y0185517D01*
X0354413Y0185418D01*
X0354429Y0185318D01*
X0354441Y0185217D01*
X0354449Y0185117D01*
X0354453Y0185016D01*
X0354453Y0184914D01*
X0354449Y0184813D01*
X0354441Y0184713D01*
X0354429Y0184612D01*
X0354413Y0184512D01*
X0354393Y0184413D01*
X0354369Y0184315D01*
X0354341Y0184218D01*
X0354310Y0184122D01*
X0354275Y0184027D01*
X0354236Y0183933D01*
X0354193Y0183842D01*
X0354147Y0183752D01*
X0354097Y0183664D01*
X0354044Y0183578D01*
X0353988Y0183494D01*
X0353928Y0183412D01*
X0353865Y0183333D01*
X0353799Y0183256D01*
X0353730Y0183183D01*
X0353658Y0183111D01*
X0353584Y0183043D01*
X0353506Y0182978D01*
X0353427Y0182916D01*
X0353344Y0182857D01*
X0353260Y0182801D01*
X0353173Y0182749D01*
X0353085Y0182700D01*
X0352995Y0182655D01*
X0352902Y0182613D01*
X0352809Y0182575D01*
X0352714Y0182541D01*
X0352617Y0182510D01*
X0352520Y0182484D01*
X0352421Y0182461D01*
X0352322Y0182442D01*
X0352222Y0182427D01*
X0352121Y0182416D01*
X0352020Y0182409D01*
X0351919Y0182406D01*
X0351818Y0182407D01*
X0351717Y0182412D01*
X0351616Y0182421D01*
X0351516Y0182434D01*
X0351416Y0182451D01*
X0351318Y0182472D01*
X0351219Y0182496D01*
X0351122Y0182525D01*
X0351027Y0182557D01*
X0350932Y0182594D01*
X0350839Y0182633D01*
X0350748Y0182677D01*
X0350659Y0182724D01*
X0350571Y0182775D01*
X0350485Y0182829D01*
X0350402Y0182886D01*
X0350321Y0182946D01*
X0350243Y0183010D01*
X0350167Y0183077D01*
X0350093Y0183147D01*
X0350023Y0183219D01*
X0349956Y0183294D01*
X0349891Y0183372D01*
X0349830Y0183453D01*
X0349772Y0183535D01*
X0349717Y0183620D01*
X0349665Y0183707D01*
X0349617Y0183796D01*
X0349573Y0183887D01*
X0349532Y0183980D01*
X0349495Y0184074D01*
X0349462Y0184169D01*
X0349432Y0184266D01*
X0349407Y0184364D01*
X0349385Y0184463D01*
X0349367Y0184562D01*
X0349353Y0184662D01*
X0349343Y0184763D01*
X0349337Y0184864D01*
X0349335Y0184965D01*
X0369020Y0184965D02*
X0369022Y0185066D01*
X0369028Y0185167D01*
X0369038Y0185268D01*
X0369052Y0185368D01*
X0369070Y0185467D01*
X0369092Y0185566D01*
X0369117Y0185664D01*
X0369147Y0185761D01*
X0369180Y0185856D01*
X0369217Y0185950D01*
X0369258Y0186043D01*
X0369302Y0186134D01*
X0369350Y0186223D01*
X0369402Y0186310D01*
X0369457Y0186395D01*
X0369515Y0186477D01*
X0369576Y0186558D01*
X0369641Y0186636D01*
X0369708Y0186711D01*
X0369778Y0186783D01*
X0369852Y0186853D01*
X0369928Y0186920D01*
X0370006Y0186984D01*
X0370087Y0187044D01*
X0370170Y0187101D01*
X0370256Y0187155D01*
X0370344Y0187206D01*
X0370433Y0187253D01*
X0370524Y0187297D01*
X0370617Y0187336D01*
X0370712Y0187373D01*
X0370807Y0187405D01*
X0370904Y0187434D01*
X0371003Y0187458D01*
X0371101Y0187479D01*
X0371201Y0187496D01*
X0371301Y0187509D01*
X0371402Y0187518D01*
X0371503Y0187523D01*
X0371604Y0187524D01*
X0371705Y0187521D01*
X0371806Y0187514D01*
X0371907Y0187503D01*
X0372007Y0187488D01*
X0372106Y0187469D01*
X0372205Y0187446D01*
X0372302Y0187420D01*
X0372399Y0187389D01*
X0372494Y0187355D01*
X0372587Y0187317D01*
X0372680Y0187275D01*
X0372770Y0187230D01*
X0372859Y0187181D01*
X0372945Y0187129D01*
X0373029Y0187073D01*
X0373112Y0187014D01*
X0373191Y0186952D01*
X0373269Y0186887D01*
X0373343Y0186819D01*
X0373415Y0186747D01*
X0373484Y0186674D01*
X0373550Y0186597D01*
X0373613Y0186518D01*
X0373673Y0186436D01*
X0373729Y0186352D01*
X0373782Y0186266D01*
X0373832Y0186178D01*
X0373878Y0186088D01*
X0373921Y0185997D01*
X0373960Y0185903D01*
X0373995Y0185808D01*
X0374026Y0185712D01*
X0374054Y0185615D01*
X0374078Y0185517D01*
X0374098Y0185418D01*
X0374114Y0185318D01*
X0374126Y0185217D01*
X0374134Y0185117D01*
X0374138Y0185016D01*
X0374138Y0184914D01*
X0374134Y0184813D01*
X0374126Y0184713D01*
X0374114Y0184612D01*
X0374098Y0184512D01*
X0374078Y0184413D01*
X0374054Y0184315D01*
X0374026Y0184218D01*
X0373995Y0184122D01*
X0373960Y0184027D01*
X0373921Y0183933D01*
X0373878Y0183842D01*
X0373832Y0183752D01*
X0373782Y0183664D01*
X0373729Y0183578D01*
X0373673Y0183494D01*
X0373613Y0183412D01*
X0373550Y0183333D01*
X0373484Y0183256D01*
X0373415Y0183183D01*
X0373343Y0183111D01*
X0373269Y0183043D01*
X0373191Y0182978D01*
X0373112Y0182916D01*
X0373029Y0182857D01*
X0372945Y0182801D01*
X0372858Y0182749D01*
X0372770Y0182700D01*
X0372680Y0182655D01*
X0372587Y0182613D01*
X0372494Y0182575D01*
X0372399Y0182541D01*
X0372302Y0182510D01*
X0372205Y0182484D01*
X0372106Y0182461D01*
X0372007Y0182442D01*
X0371907Y0182427D01*
X0371806Y0182416D01*
X0371705Y0182409D01*
X0371604Y0182406D01*
X0371503Y0182407D01*
X0371402Y0182412D01*
X0371301Y0182421D01*
X0371201Y0182434D01*
X0371101Y0182451D01*
X0371003Y0182472D01*
X0370904Y0182496D01*
X0370807Y0182525D01*
X0370712Y0182557D01*
X0370617Y0182594D01*
X0370524Y0182633D01*
X0370433Y0182677D01*
X0370344Y0182724D01*
X0370256Y0182775D01*
X0370170Y0182829D01*
X0370087Y0182886D01*
X0370006Y0182946D01*
X0369928Y0183010D01*
X0369852Y0183077D01*
X0369778Y0183147D01*
X0369708Y0183219D01*
X0369641Y0183294D01*
X0369576Y0183372D01*
X0369515Y0183453D01*
X0369457Y0183535D01*
X0369402Y0183620D01*
X0369350Y0183707D01*
X0369302Y0183796D01*
X0369258Y0183887D01*
X0369217Y0183980D01*
X0369180Y0184074D01*
X0369147Y0184169D01*
X0369117Y0184266D01*
X0369092Y0184364D01*
X0369070Y0184463D01*
X0369052Y0184562D01*
X0369038Y0184662D01*
X0369028Y0184763D01*
X0369022Y0184864D01*
X0369020Y0184965D01*
X0353468Y0110555D02*
X0353471Y0110816D01*
X0353481Y0111077D01*
X0353497Y0111337D01*
X0353519Y0111597D01*
X0353548Y0111856D01*
X0353583Y0112115D01*
X0353624Y0112372D01*
X0353672Y0112629D01*
X0353726Y0112884D01*
X0353787Y0113138D01*
X0353853Y0113390D01*
X0353926Y0113641D01*
X0354005Y0113889D01*
X0354089Y0114136D01*
X0354180Y0114381D01*
X0354277Y0114623D01*
X0354380Y0114863D01*
X0354489Y0115100D01*
X0354603Y0115334D01*
X0354723Y0115566D01*
X0354849Y0115795D01*
X0354980Y0116020D01*
X0355117Y0116242D01*
X0355259Y0116461D01*
X0355407Y0116676D01*
X0355560Y0116887D01*
X0355718Y0117095D01*
X0355881Y0117299D01*
X0356049Y0117498D01*
X0356222Y0117694D01*
X0356399Y0117885D01*
X0356581Y0118072D01*
X0356768Y0118254D01*
X0356959Y0118431D01*
X0357155Y0118604D01*
X0357354Y0118772D01*
X0357558Y0118935D01*
X0357766Y0119093D01*
X0357977Y0119246D01*
X0358192Y0119394D01*
X0358411Y0119536D01*
X0358633Y0119673D01*
X0358858Y0119804D01*
X0359087Y0119930D01*
X0359319Y0120050D01*
X0359553Y0120164D01*
X0359790Y0120273D01*
X0360030Y0120376D01*
X0360272Y0120473D01*
X0360517Y0120564D01*
X0360764Y0120648D01*
X0361012Y0120727D01*
X0361263Y0120800D01*
X0361515Y0120866D01*
X0361769Y0120927D01*
X0362024Y0120981D01*
X0362281Y0121029D01*
X0362538Y0121070D01*
X0362797Y0121105D01*
X0363056Y0121134D01*
X0363316Y0121156D01*
X0363576Y0121172D01*
X0363837Y0121182D01*
X0364098Y0121185D01*
X0364359Y0121182D01*
X0364620Y0121172D01*
X0364880Y0121156D01*
X0365140Y0121134D01*
X0365399Y0121105D01*
X0365658Y0121070D01*
X0365915Y0121029D01*
X0366172Y0120981D01*
X0366427Y0120927D01*
X0366681Y0120866D01*
X0366933Y0120800D01*
X0367184Y0120727D01*
X0367432Y0120648D01*
X0367679Y0120564D01*
X0367924Y0120473D01*
X0368166Y0120376D01*
X0368406Y0120273D01*
X0368643Y0120164D01*
X0368877Y0120050D01*
X0369109Y0119930D01*
X0369338Y0119804D01*
X0369563Y0119673D01*
X0369785Y0119536D01*
X0370004Y0119394D01*
X0370219Y0119246D01*
X0370430Y0119093D01*
X0370638Y0118935D01*
X0370842Y0118772D01*
X0371041Y0118604D01*
X0371237Y0118431D01*
X0371428Y0118254D01*
X0371615Y0118072D01*
X0371797Y0117885D01*
X0371974Y0117694D01*
X0372147Y0117498D01*
X0372315Y0117299D01*
X0372478Y0117095D01*
X0372636Y0116887D01*
X0372789Y0116676D01*
X0372937Y0116461D01*
X0373079Y0116242D01*
X0373216Y0116020D01*
X0373347Y0115795D01*
X0373473Y0115566D01*
X0373593Y0115334D01*
X0373707Y0115100D01*
X0373816Y0114863D01*
X0373919Y0114623D01*
X0374016Y0114381D01*
X0374107Y0114136D01*
X0374191Y0113889D01*
X0374270Y0113641D01*
X0374343Y0113390D01*
X0374409Y0113138D01*
X0374470Y0112884D01*
X0374524Y0112629D01*
X0374572Y0112372D01*
X0374613Y0112115D01*
X0374648Y0111856D01*
X0374677Y0111597D01*
X0374699Y0111337D01*
X0374715Y0111077D01*
X0374725Y0110816D01*
X0374728Y0110555D01*
X0374725Y0110294D01*
X0374715Y0110033D01*
X0374699Y0109773D01*
X0374677Y0109513D01*
X0374648Y0109254D01*
X0374613Y0108995D01*
X0374572Y0108738D01*
X0374524Y0108481D01*
X0374470Y0108226D01*
X0374409Y0107972D01*
X0374343Y0107720D01*
X0374270Y0107469D01*
X0374191Y0107221D01*
X0374107Y0106974D01*
X0374016Y0106729D01*
X0373919Y0106487D01*
X0373816Y0106247D01*
X0373707Y0106010D01*
X0373593Y0105776D01*
X0373473Y0105544D01*
X0373347Y0105315D01*
X0373216Y0105090D01*
X0373079Y0104868D01*
X0372937Y0104649D01*
X0372789Y0104434D01*
X0372636Y0104223D01*
X0372478Y0104015D01*
X0372315Y0103811D01*
X0372147Y0103612D01*
X0371974Y0103416D01*
X0371797Y0103225D01*
X0371615Y0103038D01*
X0371428Y0102856D01*
X0371237Y0102679D01*
X0371041Y0102506D01*
X0370842Y0102338D01*
X0370638Y0102175D01*
X0370430Y0102017D01*
X0370219Y0101864D01*
X0370004Y0101716D01*
X0369785Y0101574D01*
X0369563Y0101437D01*
X0369338Y0101306D01*
X0369109Y0101180D01*
X0368877Y0101060D01*
X0368643Y0100946D01*
X0368406Y0100837D01*
X0368166Y0100734D01*
X0367924Y0100637D01*
X0367679Y0100546D01*
X0367432Y0100462D01*
X0367184Y0100383D01*
X0366933Y0100310D01*
X0366681Y0100244D01*
X0366427Y0100183D01*
X0366172Y0100129D01*
X0365915Y0100081D01*
X0365658Y0100040D01*
X0365399Y0100005D01*
X0365140Y0099976D01*
X0364880Y0099954D01*
X0364620Y0099938D01*
X0364359Y0099928D01*
X0364098Y0099925D01*
X0363837Y0099928D01*
X0363576Y0099938D01*
X0363316Y0099954D01*
X0363056Y0099976D01*
X0362797Y0100005D01*
X0362538Y0100040D01*
X0362281Y0100081D01*
X0362024Y0100129D01*
X0361769Y0100183D01*
X0361515Y0100244D01*
X0361263Y0100310D01*
X0361012Y0100383D01*
X0360764Y0100462D01*
X0360517Y0100546D01*
X0360272Y0100637D01*
X0360030Y0100734D01*
X0359790Y0100837D01*
X0359553Y0100946D01*
X0359319Y0101060D01*
X0359087Y0101180D01*
X0358858Y0101306D01*
X0358633Y0101437D01*
X0358411Y0101574D01*
X0358192Y0101716D01*
X0357977Y0101864D01*
X0357766Y0102017D01*
X0357558Y0102175D01*
X0357354Y0102338D01*
X0357155Y0102506D01*
X0356959Y0102679D01*
X0356768Y0102856D01*
X0356581Y0103038D01*
X0356399Y0103225D01*
X0356222Y0103416D01*
X0356049Y0103612D01*
X0355881Y0103811D01*
X0355718Y0104015D01*
X0355560Y0104223D01*
X0355407Y0104434D01*
X0355259Y0104649D01*
X0355117Y0104868D01*
X0354980Y0105090D01*
X0354849Y0105315D01*
X0354723Y0105544D01*
X0354603Y0105776D01*
X0354489Y0106010D01*
X0354380Y0106247D01*
X0354277Y0106487D01*
X0354180Y0106729D01*
X0354089Y0106974D01*
X0354005Y0107221D01*
X0353926Y0107469D01*
X0353853Y0107720D01*
X0353787Y0107972D01*
X0353726Y0108226D01*
X0353672Y0108481D01*
X0353624Y0108738D01*
X0353583Y0108995D01*
X0353548Y0109254D01*
X0353519Y0109513D01*
X0353497Y0109773D01*
X0353481Y0110033D01*
X0353471Y0110294D01*
X0353468Y0110555D01*
X0369610Y0071185D02*
X0369612Y0071333D01*
X0369618Y0071481D01*
X0369628Y0071629D01*
X0369642Y0071776D01*
X0369660Y0071923D01*
X0369681Y0072069D01*
X0369707Y0072215D01*
X0369737Y0072360D01*
X0369770Y0072504D01*
X0369808Y0072647D01*
X0369849Y0072789D01*
X0369894Y0072930D01*
X0369942Y0073070D01*
X0369995Y0073209D01*
X0370051Y0073346D01*
X0370111Y0073481D01*
X0370174Y0073615D01*
X0370241Y0073747D01*
X0370312Y0073877D01*
X0370386Y0074005D01*
X0370463Y0074131D01*
X0370544Y0074255D01*
X0370628Y0074377D01*
X0370715Y0074496D01*
X0370806Y0074613D01*
X0370900Y0074728D01*
X0370996Y0074840D01*
X0371096Y0074950D01*
X0371198Y0075056D01*
X0371304Y0075160D01*
X0371412Y0075261D01*
X0371523Y0075359D01*
X0371636Y0075455D01*
X0371752Y0075547D01*
X0371870Y0075636D01*
X0371991Y0075721D01*
X0372114Y0075804D01*
X0372239Y0075883D01*
X0372366Y0075959D01*
X0372495Y0076031D01*
X0372626Y0076100D01*
X0372759Y0076165D01*
X0372894Y0076226D01*
X0373030Y0076284D01*
X0373167Y0076339D01*
X0373306Y0076389D01*
X0373447Y0076436D01*
X0373588Y0076479D01*
X0373731Y0076519D01*
X0373875Y0076554D01*
X0374019Y0076586D01*
X0374165Y0076613D01*
X0374311Y0076637D01*
X0374458Y0076657D01*
X0374605Y0076673D01*
X0374752Y0076685D01*
X0374900Y0076693D01*
X0375048Y0076697D01*
X0375196Y0076697D01*
X0375344Y0076693D01*
X0375492Y0076685D01*
X0375639Y0076673D01*
X0375786Y0076657D01*
X0375933Y0076637D01*
X0376079Y0076613D01*
X0376225Y0076586D01*
X0376369Y0076554D01*
X0376513Y0076519D01*
X0376656Y0076479D01*
X0376797Y0076436D01*
X0376938Y0076389D01*
X0377077Y0076339D01*
X0377214Y0076284D01*
X0377350Y0076226D01*
X0377485Y0076165D01*
X0377618Y0076100D01*
X0377749Y0076031D01*
X0377878Y0075959D01*
X0378005Y0075883D01*
X0378130Y0075804D01*
X0378253Y0075721D01*
X0378374Y0075636D01*
X0378492Y0075547D01*
X0378608Y0075455D01*
X0378721Y0075359D01*
X0378832Y0075261D01*
X0378940Y0075160D01*
X0379046Y0075056D01*
X0379148Y0074950D01*
X0379248Y0074840D01*
X0379344Y0074728D01*
X0379438Y0074613D01*
X0379529Y0074496D01*
X0379616Y0074377D01*
X0379700Y0074255D01*
X0379781Y0074131D01*
X0379858Y0074005D01*
X0379932Y0073877D01*
X0380003Y0073747D01*
X0380070Y0073615D01*
X0380133Y0073481D01*
X0380193Y0073346D01*
X0380249Y0073209D01*
X0380302Y0073070D01*
X0380350Y0072930D01*
X0380395Y0072789D01*
X0380436Y0072647D01*
X0380474Y0072504D01*
X0380507Y0072360D01*
X0380537Y0072215D01*
X0380563Y0072069D01*
X0380584Y0071923D01*
X0380602Y0071776D01*
X0380616Y0071629D01*
X0380626Y0071481D01*
X0380632Y0071333D01*
X0380634Y0071185D01*
X0380632Y0071037D01*
X0380626Y0070889D01*
X0380616Y0070741D01*
X0380602Y0070594D01*
X0380584Y0070447D01*
X0380563Y0070301D01*
X0380537Y0070155D01*
X0380507Y0070010D01*
X0380474Y0069866D01*
X0380436Y0069723D01*
X0380395Y0069581D01*
X0380350Y0069440D01*
X0380302Y0069300D01*
X0380249Y0069161D01*
X0380193Y0069024D01*
X0380133Y0068889D01*
X0380070Y0068755D01*
X0380003Y0068623D01*
X0379932Y0068493D01*
X0379858Y0068365D01*
X0379781Y0068239D01*
X0379700Y0068115D01*
X0379616Y0067993D01*
X0379529Y0067874D01*
X0379438Y0067757D01*
X0379344Y0067642D01*
X0379248Y0067530D01*
X0379148Y0067420D01*
X0379046Y0067314D01*
X0378940Y0067210D01*
X0378832Y0067109D01*
X0378721Y0067011D01*
X0378608Y0066915D01*
X0378492Y0066823D01*
X0378374Y0066734D01*
X0378253Y0066649D01*
X0378130Y0066566D01*
X0378005Y0066487D01*
X0377878Y0066411D01*
X0377749Y0066339D01*
X0377618Y0066270D01*
X0377485Y0066205D01*
X0377350Y0066144D01*
X0377214Y0066086D01*
X0377077Y0066031D01*
X0376938Y0065981D01*
X0376797Y0065934D01*
X0376656Y0065891D01*
X0376513Y0065851D01*
X0376369Y0065816D01*
X0376225Y0065784D01*
X0376079Y0065757D01*
X0375933Y0065733D01*
X0375786Y0065713D01*
X0375639Y0065697D01*
X0375492Y0065685D01*
X0375344Y0065677D01*
X0375196Y0065673D01*
X0375048Y0065673D01*
X0374900Y0065677D01*
X0374752Y0065685D01*
X0374605Y0065697D01*
X0374458Y0065713D01*
X0374311Y0065733D01*
X0374165Y0065757D01*
X0374019Y0065784D01*
X0373875Y0065816D01*
X0373731Y0065851D01*
X0373588Y0065891D01*
X0373447Y0065934D01*
X0373306Y0065981D01*
X0373167Y0066031D01*
X0373030Y0066086D01*
X0372894Y0066144D01*
X0372759Y0066205D01*
X0372626Y0066270D01*
X0372495Y0066339D01*
X0372366Y0066411D01*
X0372239Y0066487D01*
X0372114Y0066566D01*
X0371991Y0066649D01*
X0371870Y0066734D01*
X0371752Y0066823D01*
X0371636Y0066915D01*
X0371523Y0067011D01*
X0371412Y0067109D01*
X0371304Y0067210D01*
X0371198Y0067314D01*
X0371096Y0067420D01*
X0370996Y0067530D01*
X0370900Y0067642D01*
X0370806Y0067757D01*
X0370715Y0067874D01*
X0370628Y0067993D01*
X0370544Y0068115D01*
X0370463Y0068239D01*
X0370386Y0068365D01*
X0370312Y0068493D01*
X0370241Y0068623D01*
X0370174Y0068755D01*
X0370111Y0068889D01*
X0370051Y0069024D01*
X0369995Y0069161D01*
X0369942Y0069300D01*
X0369894Y0069440D01*
X0369849Y0069581D01*
X0369808Y0069723D01*
X0369770Y0069866D01*
X0369737Y0070010D01*
X0369707Y0070155D01*
X0369681Y0070301D01*
X0369660Y0070447D01*
X0369642Y0070594D01*
X0369628Y0070741D01*
X0369618Y0070889D01*
X0369612Y0071037D01*
X0369610Y0071185D01*
M02*
