G75*
%MOIN*%
%OFA0B0*%
%FSLAX25Y25*%
%IPPOS*%
%LPD*%
%AMOC8*
5,1,8,0,0,1.08239X$1,22.5*
%
%ADD10C,0.00000*%
%ADD11C,0.05543*%
%ADD12C,0.07677*%
%ADD13R,0.05150X0.05150*%
%ADD14C,0.05150*%
%ADD15C,0.01200*%
%ADD16C,0.01600*%
D10*
X0026600Y0013809D02*
X0057514Y0013809D01*
X0026600Y0013809D02*
X0025996Y0013816D01*
X0025392Y0013838D01*
X0024789Y0013875D01*
X0024187Y0013926D01*
X0023587Y0013991D01*
X0022988Y0014071D01*
X0022391Y0014166D01*
X0021797Y0014275D01*
X0021205Y0014398D01*
X0020617Y0014535D01*
X0020032Y0014687D01*
X0019451Y0014853D01*
X0018875Y0015033D01*
X0018302Y0015226D01*
X0017735Y0015434D01*
X0017173Y0015655D01*
X0016616Y0015889D01*
X0016065Y0016137D01*
X0015520Y0016398D01*
X0014982Y0016673D01*
X0014450Y0016960D01*
X0013926Y0017260D01*
X0013409Y0017572D01*
X0012900Y0017897D01*
X0012398Y0018234D01*
X0011905Y0018584D01*
X0011421Y0018945D01*
X0010945Y0019317D01*
X0010479Y0019701D01*
X0010022Y0020096D01*
X0009575Y0020502D01*
X0009137Y0020919D01*
X0008710Y0021346D01*
X0008293Y0021784D01*
X0007887Y0022231D01*
X0007492Y0022688D01*
X0007108Y0023154D01*
X0006736Y0023630D01*
X0006375Y0024114D01*
X0006025Y0024607D01*
X0005688Y0025109D01*
X0005363Y0025618D01*
X0005051Y0026135D01*
X0004751Y0026659D01*
X0004464Y0027191D01*
X0004189Y0027729D01*
X0003928Y0028274D01*
X0003680Y0028825D01*
X0003446Y0029382D01*
X0003225Y0029944D01*
X0003017Y0030511D01*
X0002824Y0031084D01*
X0002644Y0031660D01*
X0002478Y0032241D01*
X0002326Y0032826D01*
X0002189Y0033414D01*
X0002066Y0034006D01*
X0001957Y0034600D01*
X0001862Y0035197D01*
X0001782Y0035796D01*
X0001717Y0036396D01*
X0001666Y0036998D01*
X0001629Y0037601D01*
X0001607Y0038205D01*
X0001600Y0038809D01*
X0001600Y0072510D01*
X0001602Y0072650D01*
X0001608Y0072790D01*
X0001618Y0072930D01*
X0001631Y0073070D01*
X0001649Y0073209D01*
X0001671Y0073348D01*
X0001696Y0073485D01*
X0001725Y0073623D01*
X0001758Y0073759D01*
X0001795Y0073894D01*
X0001836Y0074028D01*
X0001881Y0074161D01*
X0001929Y0074293D01*
X0001981Y0074423D01*
X0002036Y0074552D01*
X0002095Y0074679D01*
X0002158Y0074805D01*
X0002224Y0074929D01*
X0002293Y0075050D01*
X0002366Y0075170D01*
X0002443Y0075288D01*
X0002522Y0075403D01*
X0002605Y0075517D01*
X0002691Y0075627D01*
X0002780Y0075736D01*
X0002872Y0075842D01*
X0002967Y0075945D01*
X0003064Y0076046D01*
X0003165Y0076143D01*
X0003268Y0076238D01*
X0003374Y0076330D01*
X0003483Y0076419D01*
X0003593Y0076505D01*
X0003707Y0076588D01*
X0003822Y0076667D01*
X0003940Y0076744D01*
X0004060Y0076817D01*
X0004181Y0076886D01*
X0004305Y0076952D01*
X0004431Y0077015D01*
X0004558Y0077074D01*
X0004687Y0077129D01*
X0004817Y0077181D01*
X0004949Y0077229D01*
X0005082Y0077274D01*
X0005216Y0077315D01*
X0005351Y0077352D01*
X0005487Y0077385D01*
X0005625Y0077414D01*
X0005762Y0077439D01*
X0005901Y0077461D01*
X0006040Y0077479D01*
X0006180Y0077492D01*
X0006320Y0077502D01*
X0006460Y0077508D01*
X0006600Y0077510D01*
X0086521Y0077510D01*
X0086661Y0077508D01*
X0086801Y0077502D01*
X0086941Y0077492D01*
X0087081Y0077479D01*
X0087220Y0077461D01*
X0087359Y0077439D01*
X0087496Y0077414D01*
X0087634Y0077385D01*
X0087770Y0077352D01*
X0087905Y0077315D01*
X0088039Y0077274D01*
X0088172Y0077229D01*
X0088304Y0077181D01*
X0088434Y0077129D01*
X0088563Y0077074D01*
X0088690Y0077015D01*
X0088816Y0076952D01*
X0088940Y0076886D01*
X0089061Y0076817D01*
X0089181Y0076744D01*
X0089299Y0076667D01*
X0089414Y0076588D01*
X0089528Y0076505D01*
X0089638Y0076419D01*
X0089747Y0076330D01*
X0089853Y0076238D01*
X0089956Y0076143D01*
X0090057Y0076046D01*
X0090154Y0075945D01*
X0090249Y0075842D01*
X0090341Y0075736D01*
X0090430Y0075627D01*
X0090516Y0075517D01*
X0090599Y0075403D01*
X0090678Y0075288D01*
X0090755Y0075170D01*
X0090828Y0075050D01*
X0090897Y0074929D01*
X0090963Y0074805D01*
X0091026Y0074679D01*
X0091085Y0074552D01*
X0091140Y0074423D01*
X0091192Y0074293D01*
X0091240Y0074161D01*
X0091285Y0074028D01*
X0091326Y0073894D01*
X0091363Y0073759D01*
X0091396Y0073623D01*
X0091425Y0073485D01*
X0091450Y0073348D01*
X0091472Y0073209D01*
X0091490Y0073070D01*
X0091503Y0072930D01*
X0091513Y0072790D01*
X0091519Y0072650D01*
X0091521Y0072510D01*
X0091521Y0047817D01*
X0091522Y0047817D02*
X0091512Y0046995D01*
X0091482Y0046174D01*
X0091433Y0045354D01*
X0091363Y0044535D01*
X0091274Y0043718D01*
X0091165Y0042903D01*
X0091037Y0042092D01*
X0090888Y0041283D01*
X0090721Y0040479D01*
X0090534Y0039678D01*
X0090327Y0038883D01*
X0090102Y0038093D01*
X0089858Y0037308D01*
X0089594Y0036529D01*
X0089312Y0035758D01*
X0089011Y0034993D01*
X0088692Y0034235D01*
X0088355Y0033486D01*
X0088000Y0032745D01*
X0087627Y0032013D01*
X0087236Y0031290D01*
X0086828Y0030576D01*
X0086403Y0029873D01*
X0085961Y0029180D01*
X0085502Y0028498D01*
X0085027Y0027828D01*
X0084536Y0027169D01*
X0084029Y0026522D01*
X0083507Y0025887D01*
X0082969Y0025266D01*
X0082417Y0024657D01*
X0081850Y0024062D01*
X0081269Y0023481D01*
X0080674Y0022914D01*
X0080065Y0022362D01*
X0079444Y0021824D01*
X0078809Y0021302D01*
X0078162Y0020795D01*
X0077503Y0020304D01*
X0076833Y0019829D01*
X0076151Y0019370D01*
X0075458Y0018928D01*
X0074755Y0018503D01*
X0074041Y0018095D01*
X0073318Y0017704D01*
X0072586Y0017331D01*
X0071845Y0016976D01*
X0071096Y0016639D01*
X0070338Y0016320D01*
X0069573Y0016019D01*
X0068802Y0015737D01*
X0068023Y0015473D01*
X0067238Y0015229D01*
X0066448Y0015004D01*
X0065653Y0014797D01*
X0064852Y0014610D01*
X0064048Y0014443D01*
X0063239Y0014294D01*
X0062428Y0014166D01*
X0061613Y0014057D01*
X0060796Y0013968D01*
X0059977Y0013898D01*
X0059157Y0013849D01*
X0058336Y0013819D01*
X0057514Y0013809D01*
D11*
X0050537Y0018179D03*
X0041482Y0018179D03*
X0046994Y0027234D03*
X0055655Y0035108D03*
X0046600Y0036289D03*
X0037545Y0035108D03*
X0035576Y0027234D03*
X0057624Y0027234D03*
D12*
X0065104Y0024970D02*
X0065104Y0032648D01*
X0028096Y0032648D02*
X0028096Y0024970D01*
D13*
X0011600Y0063809D03*
D14*
X0021600Y0063809D03*
X0031600Y0063809D03*
X0041600Y0063809D03*
X0051600Y0063809D03*
X0061600Y0063809D03*
X0071600Y0063809D03*
X0081600Y0063809D03*
D15*
X0018871Y0016722D02*
X0014150Y0018996D01*
X0010054Y0022263D01*
X0006787Y0026359D01*
X0004513Y0031081D01*
X0003347Y0036189D01*
X0003200Y0038809D01*
X0003200Y0072510D01*
X0003265Y0073173D01*
X0003773Y0074399D01*
X0004711Y0075337D01*
X0005937Y0075845D01*
X0006600Y0075910D01*
X0086521Y0075910D01*
X0087185Y0075845D01*
X0088410Y0075337D01*
X0089348Y0074399D01*
X0089856Y0073173D01*
X0089921Y0072510D01*
X0089921Y0047817D01*
X0089765Y0044640D01*
X0088526Y0038409D01*
X0086095Y0032540D01*
X0082565Y0027258D01*
X0078073Y0022765D01*
X0072790Y0019236D01*
X0066921Y0016805D01*
X0060690Y0015565D01*
X0057514Y0015409D01*
X0053384Y0015409D01*
X0053904Y0015929D01*
X0054509Y0017389D01*
X0054509Y0018969D01*
X0053904Y0020429D01*
X0052787Y0021546D01*
X0051327Y0022151D01*
X0049747Y0022151D01*
X0048287Y0021546D01*
X0047170Y0020429D01*
X0046565Y0018969D01*
X0046565Y0017389D01*
X0047170Y0015929D01*
X0047690Y0015409D01*
X0044329Y0015409D01*
X0044849Y0015929D01*
X0045454Y0017389D01*
X0045454Y0018969D01*
X0044849Y0020429D01*
X0043732Y0021546D01*
X0042272Y0022151D01*
X0040692Y0022151D01*
X0039232Y0021546D01*
X0039218Y0021532D01*
X0032320Y0021532D01*
X0032748Y0022120D01*
X0033136Y0022883D01*
X0033401Y0023697D01*
X0033421Y0023828D01*
X0034786Y0023263D01*
X0036366Y0023263D01*
X0037826Y0023867D01*
X0038943Y0024984D01*
X0039548Y0026444D01*
X0039548Y0028024D01*
X0038943Y0029484D01*
X0037826Y0030601D01*
X0036366Y0031206D01*
X0034786Y0031206D01*
X0033535Y0030687D01*
X0033535Y0033076D01*
X0033401Y0033921D01*
X0033136Y0034735D01*
X0032748Y0035498D01*
X0032244Y0036191D01*
X0031639Y0036796D01*
X0030946Y0037299D01*
X0030184Y0037688D01*
X0029370Y0037952D01*
X0028696Y0038059D01*
X0028696Y0029409D01*
X0027496Y0029409D01*
X0027496Y0038059D01*
X0026823Y0037952D01*
X0026008Y0037688D01*
X0025246Y0037299D01*
X0024553Y0036796D01*
X0023948Y0036191D01*
X0023600Y0035712D01*
X0023600Y0060552D01*
X0023738Y0060609D01*
X0024800Y0061671D01*
X0025375Y0063058D01*
X0025375Y0064560D01*
X0024800Y0065947D01*
X0023738Y0067009D01*
X0022351Y0067584D01*
X0020849Y0067584D01*
X0019462Y0067009D01*
X0018400Y0065947D01*
X0017825Y0064560D01*
X0017825Y0063058D01*
X0018400Y0061671D01*
X0019462Y0060609D01*
X0019600Y0060552D01*
X0019600Y0022947D01*
X0025015Y0017532D01*
X0037510Y0017532D01*
X0037510Y0017389D01*
X0038115Y0015929D01*
X0038635Y0015409D01*
X0026600Y0015409D01*
X0023980Y0015556D01*
X0018871Y0016722D01*
X0017454Y0017405D02*
X0037510Y0017405D01*
X0038000Y0016206D02*
X0021133Y0016206D01*
X0023944Y0018603D02*
X0014966Y0018603D01*
X0013140Y0019802D02*
X0022745Y0019802D01*
X0021547Y0021000D02*
X0011637Y0021000D01*
X0010134Y0022199D02*
X0020348Y0022199D01*
X0019600Y0023397D02*
X0009149Y0023397D01*
X0008193Y0024596D02*
X0019600Y0024596D01*
X0019600Y0025794D02*
X0007237Y0025794D01*
X0006482Y0026993D02*
X0019600Y0026993D01*
X0019600Y0028191D02*
X0005905Y0028191D01*
X0005327Y0029390D02*
X0019600Y0029390D01*
X0019600Y0030588D02*
X0004750Y0030588D01*
X0004352Y0031787D02*
X0019600Y0031787D01*
X0019600Y0032985D02*
X0004078Y0032985D01*
X0003805Y0034184D02*
X0019600Y0034184D01*
X0019600Y0035382D02*
X0003531Y0035382D01*
X0003325Y0036581D02*
X0019600Y0036581D01*
X0019600Y0037779D02*
X0003258Y0037779D01*
X0003200Y0038978D02*
X0019600Y0038978D01*
X0019600Y0040176D02*
X0003200Y0040176D01*
X0003200Y0041375D02*
X0019600Y0041375D01*
X0019600Y0042573D02*
X0003200Y0042573D01*
X0003200Y0043772D02*
X0019600Y0043772D01*
X0019600Y0044970D02*
X0003200Y0044970D01*
X0003200Y0046169D02*
X0019600Y0046169D01*
X0019600Y0047367D02*
X0003200Y0047367D01*
X0003200Y0048566D02*
X0019600Y0048566D01*
X0019600Y0049764D02*
X0003200Y0049764D01*
X0003200Y0050963D02*
X0019600Y0050963D01*
X0019600Y0052161D02*
X0003200Y0052161D01*
X0003200Y0053360D02*
X0019600Y0053360D01*
X0019600Y0054558D02*
X0003200Y0054558D01*
X0003200Y0055757D02*
X0019600Y0055757D01*
X0019600Y0056955D02*
X0003200Y0056955D01*
X0003200Y0058154D02*
X0019600Y0058154D01*
X0019600Y0059352D02*
X0003200Y0059352D01*
X0003200Y0060551D02*
X0008011Y0060551D01*
X0007825Y0060737D02*
X0008528Y0060034D01*
X0014672Y0060034D01*
X0015375Y0060737D01*
X0015375Y0066881D01*
X0014672Y0067584D01*
X0008528Y0067584D01*
X0007825Y0066881D01*
X0007825Y0060737D01*
X0007825Y0061750D02*
X0003200Y0061750D01*
X0003200Y0062948D02*
X0007825Y0062948D01*
X0007825Y0064147D02*
X0003200Y0064147D01*
X0003200Y0065345D02*
X0007825Y0065345D01*
X0007825Y0066544D02*
X0003200Y0066544D01*
X0003200Y0067742D02*
X0040195Y0067742D01*
X0039997Y0067678D02*
X0040622Y0067881D01*
X0041271Y0067984D01*
X0041413Y0067984D01*
X0041413Y0063997D01*
X0041787Y0063997D01*
X0041787Y0067984D01*
X0041929Y0067984D01*
X0042578Y0067881D01*
X0043203Y0067678D01*
X0043788Y0067380D01*
X0044320Y0066993D01*
X0044784Y0066529D01*
X0045171Y0065997D01*
X0045469Y0065412D01*
X0045672Y0064787D01*
X0045775Y0064138D01*
X0045775Y0063996D01*
X0041787Y0063996D01*
X0041787Y0063622D01*
X0041787Y0059634D01*
X0041929Y0059634D01*
X0042578Y0059737D01*
X0043203Y0059940D01*
X0043788Y0060238D01*
X0044320Y0060625D01*
X0044784Y0061089D01*
X0045171Y0061621D01*
X0045469Y0062206D01*
X0045672Y0062831D01*
X0045775Y0063480D01*
X0045775Y0063622D01*
X0041787Y0063622D01*
X0041413Y0063622D01*
X0041413Y0059634D01*
X0041271Y0059634D01*
X0040622Y0059737D01*
X0039997Y0059940D01*
X0039412Y0060238D01*
X0038880Y0060625D01*
X0038416Y0061089D01*
X0038029Y0061621D01*
X0037731Y0062206D01*
X0037528Y0062831D01*
X0037425Y0063480D01*
X0037425Y0063622D01*
X0041413Y0063622D01*
X0041413Y0063996D01*
X0037425Y0063996D01*
X0037425Y0064138D01*
X0037528Y0064787D01*
X0037731Y0065412D01*
X0038029Y0065997D01*
X0038416Y0066529D01*
X0038880Y0066993D01*
X0039412Y0067380D01*
X0039997Y0067678D01*
X0041413Y0067742D02*
X0041787Y0067742D01*
X0041787Y0066544D02*
X0041413Y0066544D01*
X0041413Y0065345D02*
X0041787Y0065345D01*
X0041787Y0064147D02*
X0041413Y0064147D01*
X0041413Y0062948D02*
X0041787Y0062948D01*
X0041787Y0061750D02*
X0041413Y0061750D01*
X0041413Y0060551D02*
X0041787Y0060551D01*
X0044218Y0060551D02*
X0049602Y0060551D01*
X0049462Y0060609D02*
X0050849Y0060034D01*
X0052351Y0060034D01*
X0053738Y0060609D01*
X0054800Y0061671D01*
X0055375Y0063058D01*
X0055375Y0064560D01*
X0054800Y0065947D01*
X0053738Y0067009D01*
X0052351Y0067584D01*
X0050849Y0067584D01*
X0049462Y0067009D01*
X0048400Y0065947D01*
X0047825Y0064560D01*
X0047825Y0063058D01*
X0048400Y0061671D01*
X0049462Y0060609D01*
X0048367Y0061750D02*
X0045236Y0061750D01*
X0045690Y0062948D02*
X0047871Y0062948D01*
X0047825Y0064147D02*
X0045773Y0064147D01*
X0045491Y0065345D02*
X0048150Y0065345D01*
X0048996Y0066544D02*
X0044770Y0066544D01*
X0043005Y0067742D02*
X0076801Y0067742D01*
X0077999Y0068941D02*
X0003200Y0068941D01*
X0003200Y0070139D02*
X0089921Y0070139D01*
X0089921Y0071338D02*
X0003200Y0071338D01*
X0003203Y0072536D02*
X0089919Y0072536D01*
X0089623Y0073735D02*
X0003498Y0073735D01*
X0004307Y0074933D02*
X0088814Y0074933D01*
X0084158Y0069984D02*
X0079042Y0069984D01*
X0074867Y0065809D01*
X0074857Y0065809D01*
X0074800Y0065947D01*
X0073738Y0067009D01*
X0072351Y0067584D01*
X0070849Y0067584D01*
X0069462Y0067009D01*
X0068400Y0065947D01*
X0067825Y0064560D01*
X0067825Y0063058D01*
X0068400Y0061671D01*
X0069462Y0060609D01*
X0070849Y0060034D01*
X0072351Y0060034D01*
X0073738Y0060609D01*
X0074800Y0061671D01*
X0074857Y0061809D01*
X0076524Y0061809D01*
X0077825Y0063110D01*
X0077825Y0063058D01*
X0077882Y0062920D01*
X0070772Y0055809D01*
X0055417Y0055809D01*
X0038585Y0038976D01*
X0038335Y0039080D01*
X0036755Y0039080D01*
X0035295Y0038475D01*
X0034178Y0037358D01*
X0033573Y0035898D01*
X0033573Y0034318D01*
X0034178Y0032859D01*
X0035295Y0031741D01*
X0036755Y0031137D01*
X0038335Y0031137D01*
X0039795Y0031741D01*
X0040912Y0032859D01*
X0041517Y0034318D01*
X0041517Y0035898D01*
X0041413Y0036148D01*
X0042829Y0037564D01*
X0042628Y0037079D01*
X0042628Y0035499D01*
X0043233Y0034040D01*
X0044350Y0032922D01*
X0045810Y0032318D01*
X0047390Y0032318D01*
X0048850Y0032922D01*
X0049967Y0034040D01*
X0050572Y0035499D01*
X0050572Y0037079D01*
X0050468Y0037329D01*
X0062548Y0049409D01*
X0075933Y0049409D01*
X0077104Y0050581D01*
X0087775Y0061251D01*
X0087775Y0066367D01*
X0086603Y0067538D01*
X0084158Y0069984D01*
X0085201Y0068941D02*
X0089921Y0068941D01*
X0089921Y0067742D02*
X0086399Y0067742D01*
X0087598Y0066544D02*
X0089921Y0066544D01*
X0089921Y0065345D02*
X0087775Y0065345D01*
X0087775Y0064147D02*
X0089921Y0064147D01*
X0089921Y0062948D02*
X0087775Y0062948D01*
X0087775Y0061750D02*
X0089921Y0061750D01*
X0089921Y0060551D02*
X0087074Y0060551D01*
X0085876Y0059352D02*
X0089921Y0059352D01*
X0089921Y0058154D02*
X0084677Y0058154D01*
X0083479Y0056955D02*
X0089921Y0056955D01*
X0089921Y0055757D02*
X0082280Y0055757D01*
X0081082Y0054558D02*
X0089921Y0054558D01*
X0089921Y0053360D02*
X0079883Y0053360D01*
X0078685Y0052161D02*
X0089921Y0052161D01*
X0089921Y0050963D02*
X0077486Y0050963D01*
X0076288Y0049764D02*
X0089921Y0049764D01*
X0089921Y0048566D02*
X0061705Y0048566D01*
X0060506Y0047367D02*
X0089899Y0047367D01*
X0089840Y0046169D02*
X0059308Y0046169D01*
X0058109Y0044970D02*
X0089781Y0044970D01*
X0089765Y0044640D02*
X0089765Y0044640D01*
X0089592Y0043772D02*
X0056911Y0043772D01*
X0055712Y0042573D02*
X0089354Y0042573D01*
X0089116Y0041375D02*
X0054514Y0041375D01*
X0053315Y0040176D02*
X0088877Y0040176D01*
X0088639Y0038978D02*
X0056692Y0038978D01*
X0056445Y0039080D02*
X0054865Y0039080D01*
X0053405Y0038475D01*
X0052288Y0037358D01*
X0051683Y0035898D01*
X0051683Y0034318D01*
X0052288Y0032859D01*
X0053405Y0031741D01*
X0054865Y0031137D01*
X0056445Y0031137D01*
X0057905Y0031741D01*
X0059022Y0032859D01*
X0059627Y0034318D01*
X0059627Y0035898D01*
X0059022Y0037358D01*
X0057905Y0038475D01*
X0056445Y0039080D01*
X0054619Y0038978D02*
X0052117Y0038978D01*
X0052709Y0037779D02*
X0050918Y0037779D01*
X0050572Y0036581D02*
X0051966Y0036581D01*
X0051683Y0035382D02*
X0050523Y0035382D01*
X0050027Y0034184D02*
X0051739Y0034184D01*
X0052236Y0032985D02*
X0048913Y0032985D01*
X0048672Y0031286D02*
X0048017Y0031498D01*
X0047338Y0031606D01*
X0047280Y0031606D01*
X0047280Y0027520D01*
X0051365Y0027520D01*
X0051365Y0027578D01*
X0051258Y0028258D01*
X0051045Y0028912D01*
X0050733Y0029525D01*
X0050328Y0030082D01*
X0049842Y0030569D01*
X0049285Y0030973D01*
X0048672Y0031286D01*
X0049815Y0030588D02*
X0055361Y0030588D01*
X0055374Y0030601D02*
X0054257Y0029484D01*
X0053652Y0028024D01*
X0053652Y0026444D01*
X0054257Y0024984D01*
X0055374Y0023867D01*
X0056834Y0023263D01*
X0058414Y0023263D01*
X0059779Y0023828D01*
X0059799Y0023697D01*
X0060064Y0022883D01*
X0060452Y0022120D01*
X0060956Y0021427D01*
X0061561Y0020822D01*
X0062253Y0020319D01*
X0063016Y0019930D01*
X0063830Y0019666D01*
X0064504Y0019559D01*
X0064504Y0028209D01*
X0065704Y0028209D01*
X0065704Y0029409D01*
X0070543Y0029409D01*
X0070543Y0033076D01*
X0070409Y0033921D01*
X0070144Y0034735D01*
X0069755Y0035498D01*
X0069252Y0036191D01*
X0068647Y0036796D01*
X0067954Y0037299D01*
X0067192Y0037688D01*
X0066377Y0037952D01*
X0065704Y0038059D01*
X0065704Y0029409D01*
X0064504Y0029409D01*
X0064504Y0038059D01*
X0063830Y0037952D01*
X0063016Y0037688D01*
X0062253Y0037299D01*
X0061561Y0036796D01*
X0060956Y0036191D01*
X0060452Y0035498D01*
X0060064Y0034735D01*
X0059799Y0033921D01*
X0059665Y0033076D01*
X0059665Y0030687D01*
X0058414Y0031206D01*
X0056834Y0031206D01*
X0055374Y0030601D01*
X0054218Y0029390D02*
X0050802Y0029390D01*
X0051268Y0028191D02*
X0053721Y0028191D01*
X0053652Y0026993D02*
X0047280Y0026993D01*
X0047280Y0026948D02*
X0047280Y0027520D01*
X0046708Y0027520D01*
X0046708Y0031606D01*
X0046650Y0031606D01*
X0045970Y0031498D01*
X0045316Y0031286D01*
X0044702Y0030973D01*
X0044146Y0030569D01*
X0043659Y0030082D01*
X0043255Y0029525D01*
X0042942Y0028912D01*
X0042730Y0028258D01*
X0042622Y0027578D01*
X0042622Y0027520D01*
X0046708Y0027520D01*
X0046708Y0026948D01*
X0047280Y0026948D01*
X0051365Y0026948D01*
X0051365Y0026890D01*
X0051258Y0026211D01*
X0051045Y0025556D01*
X0050733Y0024943D01*
X0050328Y0024386D01*
X0049842Y0023900D01*
X0049285Y0023495D01*
X0048672Y0023183D01*
X0048017Y0022970D01*
X0047338Y0022863D01*
X0047280Y0022863D01*
X0047280Y0026948D01*
X0046708Y0026948D02*
X0046708Y0022863D01*
X0046650Y0022863D01*
X0045970Y0022970D01*
X0045316Y0023183D01*
X0044702Y0023495D01*
X0044146Y0023900D01*
X0043659Y0024386D01*
X0043255Y0024943D01*
X0042942Y0025556D01*
X0042730Y0026211D01*
X0042622Y0026890D01*
X0042622Y0026948D01*
X0046708Y0026948D01*
X0046708Y0026993D02*
X0039548Y0026993D01*
X0039279Y0025794D02*
X0042865Y0025794D01*
X0043507Y0024596D02*
X0038555Y0024596D01*
X0036691Y0023397D02*
X0044895Y0023397D01*
X0046708Y0023397D02*
X0047280Y0023397D01*
X0047280Y0024596D02*
X0046708Y0024596D01*
X0046708Y0025794D02*
X0047280Y0025794D01*
X0047280Y0028191D02*
X0046708Y0028191D01*
X0046708Y0029390D02*
X0047280Y0029390D01*
X0047280Y0030588D02*
X0046708Y0030588D01*
X0044173Y0030588D02*
X0037839Y0030588D01*
X0038982Y0029390D02*
X0043186Y0029390D01*
X0042719Y0028191D02*
X0039479Y0028191D01*
X0039840Y0031787D02*
X0053360Y0031787D01*
X0057950Y0031787D02*
X0059665Y0031787D01*
X0059665Y0032985D02*
X0059075Y0032985D01*
X0059571Y0034184D02*
X0059885Y0034184D01*
X0059627Y0035382D02*
X0060393Y0035382D01*
X0061346Y0036581D02*
X0059344Y0036581D01*
X0058601Y0037779D02*
X0063298Y0037779D01*
X0064504Y0037779D02*
X0065704Y0037779D01*
X0065704Y0036581D02*
X0064504Y0036581D01*
X0064504Y0035382D02*
X0065704Y0035382D01*
X0065704Y0034184D02*
X0064504Y0034184D01*
X0064504Y0032985D02*
X0065704Y0032985D01*
X0065704Y0031787D02*
X0064504Y0031787D01*
X0064504Y0030588D02*
X0065704Y0030588D01*
X0065704Y0029390D02*
X0083990Y0029390D01*
X0083189Y0028191D02*
X0070543Y0028191D01*
X0070543Y0028209D02*
X0065704Y0028209D01*
X0065704Y0019559D01*
X0066377Y0019666D01*
X0067192Y0019930D01*
X0067954Y0020319D01*
X0068647Y0020822D01*
X0069252Y0021427D01*
X0069755Y0022120D01*
X0070144Y0022883D01*
X0070409Y0023697D01*
X0070543Y0024542D01*
X0070543Y0028209D01*
X0070543Y0026993D02*
X0082300Y0026993D01*
X0081102Y0025794D02*
X0070543Y0025794D01*
X0070543Y0024596D02*
X0079903Y0024596D01*
X0078705Y0023397D02*
X0070311Y0023397D01*
X0069795Y0022199D02*
X0077225Y0022199D01*
X0075431Y0021000D02*
X0068825Y0021000D01*
X0066795Y0019802D02*
X0073637Y0019802D01*
X0071263Y0018603D02*
X0054509Y0018603D01*
X0054164Y0019802D02*
X0063412Y0019802D01*
X0064504Y0019802D02*
X0065704Y0019802D01*
X0065704Y0021000D02*
X0064504Y0021000D01*
X0064504Y0022199D02*
X0065704Y0022199D01*
X0065704Y0023397D02*
X0064504Y0023397D01*
X0064504Y0024596D02*
X0065704Y0024596D01*
X0065704Y0025794D02*
X0064504Y0025794D01*
X0064504Y0026993D02*
X0065704Y0026993D01*
X0065704Y0028191D02*
X0064504Y0028191D01*
X0070543Y0030588D02*
X0084791Y0030588D01*
X0085591Y0031787D02*
X0070543Y0031787D01*
X0070543Y0032985D02*
X0086279Y0032985D01*
X0086776Y0034184D02*
X0070323Y0034184D01*
X0069814Y0035382D02*
X0087272Y0035382D01*
X0087768Y0036581D02*
X0068862Y0036581D01*
X0066910Y0037779D02*
X0088265Y0037779D01*
X0071918Y0056955D02*
X0023600Y0056955D01*
X0023600Y0055757D02*
X0055365Y0055757D01*
X0054167Y0054558D02*
X0023600Y0054558D01*
X0023600Y0053360D02*
X0052968Y0053360D01*
X0051770Y0052161D02*
X0023600Y0052161D01*
X0023600Y0050963D02*
X0050571Y0050963D01*
X0049373Y0049764D02*
X0023600Y0049764D01*
X0023600Y0048566D02*
X0048174Y0048566D01*
X0046976Y0047367D02*
X0023600Y0047367D01*
X0023600Y0046169D02*
X0045777Y0046169D01*
X0044579Y0044970D02*
X0023600Y0044970D01*
X0023600Y0043772D02*
X0043380Y0043772D01*
X0042182Y0042573D02*
X0023600Y0042573D01*
X0023600Y0041375D02*
X0040983Y0041375D01*
X0039784Y0040176D02*
X0023600Y0040176D01*
X0023600Y0038978D02*
X0036508Y0038978D01*
X0038581Y0038978D02*
X0038586Y0038978D01*
X0041846Y0036581D02*
X0042628Y0036581D01*
X0042677Y0035382D02*
X0041517Y0035382D01*
X0041461Y0034184D02*
X0043173Y0034184D01*
X0044287Y0032985D02*
X0040964Y0032985D01*
X0035250Y0031787D02*
X0033535Y0031787D01*
X0033535Y0032985D02*
X0034125Y0032985D01*
X0033629Y0034184D02*
X0033315Y0034184D01*
X0033573Y0035382D02*
X0032807Y0035382D01*
X0031854Y0036581D02*
X0033856Y0036581D01*
X0034599Y0037779D02*
X0029902Y0037779D01*
X0028696Y0037779D02*
X0027496Y0037779D01*
X0027496Y0036581D02*
X0028696Y0036581D01*
X0028696Y0035382D02*
X0027496Y0035382D01*
X0027496Y0034184D02*
X0028696Y0034184D01*
X0028696Y0032985D02*
X0027496Y0032985D01*
X0027496Y0031787D02*
X0028696Y0031787D01*
X0028696Y0030588D02*
X0027496Y0030588D01*
X0024338Y0036581D02*
X0023600Y0036581D01*
X0023600Y0037779D02*
X0026290Y0037779D01*
X0033303Y0023397D02*
X0034462Y0023397D01*
X0032788Y0022199D02*
X0060412Y0022199D01*
X0061383Y0021000D02*
X0053333Y0021000D01*
X0056509Y0023397D02*
X0049092Y0023397D01*
X0050480Y0024596D02*
X0054645Y0024596D01*
X0053921Y0025794D02*
X0051122Y0025794D01*
X0047741Y0021000D02*
X0044278Y0021000D01*
X0045109Y0019802D02*
X0046910Y0019802D01*
X0046565Y0018603D02*
X0045454Y0018603D01*
X0045454Y0017405D02*
X0046565Y0017405D01*
X0047055Y0016206D02*
X0044963Y0016206D01*
X0054019Y0016206D02*
X0063913Y0016206D01*
X0068370Y0017405D02*
X0054509Y0017405D01*
X0058738Y0023397D02*
X0059897Y0023397D01*
X0073117Y0058154D02*
X0023600Y0058154D01*
X0023600Y0059352D02*
X0074315Y0059352D01*
X0073598Y0060551D02*
X0075514Y0060551D01*
X0074833Y0061750D02*
X0076712Y0061750D01*
X0077663Y0062948D02*
X0077871Y0062948D01*
X0075602Y0066544D02*
X0074204Y0066544D01*
X0068996Y0066544D02*
X0064204Y0066544D01*
X0063738Y0067009D02*
X0062351Y0067584D01*
X0060849Y0067584D01*
X0059462Y0067009D01*
X0058400Y0065947D01*
X0057825Y0064560D01*
X0057825Y0063058D01*
X0058400Y0061671D01*
X0059462Y0060609D01*
X0060849Y0060034D01*
X0062351Y0060034D01*
X0063738Y0060609D01*
X0064800Y0061671D01*
X0065375Y0063058D01*
X0065375Y0064560D01*
X0064800Y0065947D01*
X0063738Y0067009D01*
X0065050Y0065345D02*
X0068150Y0065345D01*
X0067825Y0064147D02*
X0065375Y0064147D01*
X0065329Y0062948D02*
X0067871Y0062948D01*
X0068367Y0061750D02*
X0064833Y0061750D01*
X0063598Y0060551D02*
X0069602Y0060551D01*
X0059602Y0060551D02*
X0053598Y0060551D01*
X0054833Y0061750D02*
X0058367Y0061750D01*
X0057871Y0062948D02*
X0055329Y0062948D01*
X0055375Y0064147D02*
X0057825Y0064147D01*
X0058150Y0065345D02*
X0055050Y0065345D01*
X0054204Y0066544D02*
X0058996Y0066544D01*
X0038430Y0066544D02*
X0034204Y0066544D01*
X0033738Y0067009D02*
X0032351Y0067584D01*
X0030849Y0067584D01*
X0029462Y0067009D01*
X0028400Y0065947D01*
X0027825Y0064560D01*
X0027825Y0063058D01*
X0028400Y0061671D01*
X0029462Y0060609D01*
X0030849Y0060034D01*
X0032351Y0060034D01*
X0033738Y0060609D01*
X0034800Y0061671D01*
X0035375Y0063058D01*
X0035375Y0064560D01*
X0034800Y0065947D01*
X0033738Y0067009D01*
X0035050Y0065345D02*
X0037709Y0065345D01*
X0037427Y0064147D02*
X0035375Y0064147D01*
X0035329Y0062948D02*
X0037510Y0062948D01*
X0037964Y0061750D02*
X0034833Y0061750D01*
X0033598Y0060551D02*
X0038982Y0060551D01*
X0029602Y0060551D02*
X0023600Y0060551D01*
X0024833Y0061750D02*
X0028367Y0061750D01*
X0027871Y0062948D02*
X0025329Y0062948D01*
X0025375Y0064147D02*
X0027825Y0064147D01*
X0028150Y0065345D02*
X0025050Y0065345D01*
X0024204Y0066544D02*
X0028996Y0066544D01*
X0019600Y0060551D02*
X0015189Y0060551D01*
X0015375Y0061750D02*
X0018367Y0061750D01*
X0017871Y0062948D02*
X0015375Y0062948D01*
X0015375Y0064147D02*
X0017825Y0064147D01*
X0018150Y0065345D02*
X0015375Y0065345D01*
X0015375Y0066544D02*
X0018996Y0066544D01*
D16*
X0021600Y0063809D02*
X0021600Y0023775D01*
X0025843Y0019532D01*
X0040129Y0019532D01*
X0041482Y0018179D01*
X0037387Y0022863D02*
X0041759Y0027234D01*
X0046994Y0027234D01*
X0037387Y0022863D02*
X0033766Y0022863D01*
X0031205Y0025423D01*
X0031205Y0025700D01*
X0028096Y0028809D01*
X0037545Y0035108D02*
X0056246Y0053809D01*
X0071600Y0053809D01*
X0081600Y0063809D01*
X0085775Y0062080D02*
X0075104Y0051409D01*
X0061720Y0051409D01*
X0046600Y0036289D01*
X0071600Y0063809D02*
X0075696Y0063809D01*
X0079871Y0067984D01*
X0083329Y0067984D01*
X0085775Y0065538D01*
X0085775Y0062080D01*
M02*
